<?xml version="1.0" encoding="UTF-8"?>
<svg version="1.1" xmlns="http://www.w3.org/2000/svg" width="204" height="192">
<path d="M0 0 C67.32 0 134.64 0 204 0 C204 63.36 204 126.72 204 192 C136.68 192 69.36 192 0 192 C0 128.64 0 65.28 0 0 Z " fill="#FDFDFD" transform="translate(0,0)"/>
<path d="M0 0 C1.02150398 0.00848969 1.02150398 0.00848969 2.06364441 0.01715088 C4.2241552 0.03942019 6.38296521 0.08959182 8.54296875 0.140625 C10.0136478 0.16070253 11.48435304 0.17895111 12.95507812 0.1953125 C16.54742125 0.23925174 20.13877881 0.30821044 23.73046875 0.390625 C23.54296875 2.703125 23.54296875 2.703125 22.73046875 5.390625 C19.26637526 8.19340195 16.59935428 8.75714263 12.2109375 8.68359375 C11.18935547 8.67392578 10.16777344 8.66425781 9.11523438 8.65429688 C8.06013672 8.62916016 7.00503906 8.60402344 5.91796875 8.578125 C4.30631836 8.55782227 4.30631836 8.55782227 2.66210938 8.53710938 C0.0177142 8.50185077 -2.62564873 8.45256866 -5.26953125 8.390625 C-5.24334717 9.09147217 -5.21716309 9.79231934 -5.19018555 10.5144043 C-5.08599585 13.7020815 -5.02113542 16.88940026 -4.95703125 20.078125 C-4.89418945 21.73231445 -4.89418945 21.73231445 -4.83007812 23.41992188 C-4.69192332 32.5657697 -4.69192332 32.5657697 -7.6640625 35.66015625 C-10.26953125 37.390625 -10.26953125 37.390625 -12.26953125 37.390625 C-12.39330215 32.7642592 -12.48394641 28.13886039 -12.54418945 23.51123047 C-12.56930573 21.93781749 -12.60340597 20.36452088 -12.64672852 18.79150391 C-12.70751524 16.52737728 -12.73576707 14.26479478 -12.7578125 12 C-12.78361893 11.29881042 -12.80942535 10.59762085 -12.83601379 9.87518311 C-12.83804 6.33207432 -12.50749607 4.67157123 -10.19335938 1.93945312 C-6.54796318 0.00839155 -4.11583685 -0.0677504 0 0 Z " fill="#0EAA62" transform="translate(32.26953125,68.609375)"/>
<path d="M0 0 C0.0992011 4.32326033 0.17162265 8.64591024 0.21972656 12.9699707 C0.23978825 14.43948921 0.26704478 15.90892841 0.30175781 17.37817383 C0.35052141 19.49580487 0.37302161 21.61237687 0.390625 23.73046875 C0.41157227 25.00301514 0.43251953 26.27556152 0.45410156 27.58666992 C-0.08033213 31.60382987 -1.03159723 33.27158328 -4 36 C-5.32 36 -6.64 36 -8 36 C-8.0992011 31.67673967 -8.17162265 27.35408976 -8.21972656 23.0300293 C-8.23978825 21.56051079 -8.26704478 20.09107159 -8.30175781 18.62182617 C-8.35052141 16.50419513 -8.37302161 14.38762313 -8.390625 12.26953125 C-8.41157227 10.99698486 -8.43251953 9.72443848 -8.45410156 8.41333008 C-7.69169581 2.68258014 -5.89561989 0 0 0 Z " fill="#FAB426" transform="translate(17,80)"/>
<path d="M0 0 C11.33145198 -0.49267183 11.33145198 -0.49267183 14.390625 1.76171875 C16.1818251 4.25287812 16.45874936 5.08636354 16 8.0625 C15.49047669 10.77154968 15.12353954 11.85358277 13.3125 14 C10.41445453 15.25320885 8.12461161 15.2130417 5 15 C5 17.31 5 19.62 5 22 C3.35 22 1.7 22 0 22 C0 14.74 0 7.48 0 0 Z " fill="#453D6B" transform="translate(46,95)"/>
<path d="M0 0 C1.30807617 -0.04350586 1.30807617 -0.04350586 2.64257812 -0.08789062 C8.96881953 -0.15110441 8.96881953 -0.15110441 11.6484375 1.94140625 C12.81052134 4.95587159 12.85514399 7.33808424 12.75 10.5625 C12.72292969 11.64015625 12.69585937 12.7178125 12.66796875 13.828125 C12.63316406 14.64796875 12.59835938 15.4678125 12.5625 16.3125 C11.2425 16.3125 9.9225 16.3125 8.5625 16.3125 C8.5625 12.3525 8.5625 8.3925 8.5625 4.3125 C5.5925 3.8175 5.5925 3.8175 2.5625 3.3125 C2.5625 7.9325 2.5625 12.5525 2.5625 17.3125 C1.2425 17.3125 -0.0775 17.3125 -1.4375 17.3125 C-1.7675 13.0225 -2.0975 8.7325 -2.4375 4.3125 C-4.0875 3.9825 -5.7375 3.6525 -7.4375 3.3125 C-7.4375 7.6025 -7.4375 11.8925 -7.4375 16.3125 C-8.7575 16.3125 -10.0775 16.3125 -11.4375 16.3125 C-11.4375 11.3625 -11.4375 6.4125 -11.4375 1.3125 C-7.90784724 -0.45232638 -3.88850224 0.04291945 0 0 Z " fill="#221B50" transform="translate(112.4375,99.6875)"/>
<path d="M0 0 C4.04381805 0.84246209 5.53235541 2.35899981 8 5.625 C8 7.275 8 8.925 8 10.625 C4.37 10.625 0.74 10.625 -3 10.625 C-2.67 11.285 -2.34 11.945 -2 12.625 C-0.10466658 13.09023063 -0.10466658 13.09023063 2.0625 13.25 C3.361875 13.37375 4.66125 13.4975 6 13.625 C6 14.945 6 16.265 6 17.625 C-1.76785714 18.29464286 -1.76785714 18.29464286 -5.5 15.5625 C-8 12.625 -8 12.625 -8.6875 9.125 C-7.64484739 3.81695035 -5.37004113 1.11875857 0 0 Z " fill="#362E60" transform="translate(187,74.375)"/>
<path d="M0 0 C2.4375 2.1875 2.4375 2.1875 4 5 C4 6.65 4 8.3 4 10 C0.37 10 -3.26 10 -7 10 C-6.67 10.66 -6.34 11.32 -6 12 C-3.87423218 12.46651207 -3.87423218 12.46651207 -1.4375 12.625 C-0.61121094 12.69976562 0.21507812 12.77453125 1.06640625 12.8515625 C1.70449219 12.90054688 2.34257812 12.94953125 3 13 C3 13.99 3 14.98 3 16 C-0.10048928 17.55024464 -2.57894218 17.28992015 -6 17 C-8.9375 15.5625 -8.9375 15.5625 -11 13 C-11.90537884 8.67165381 -11.75308359 5.23505708 -9.4375 1.4375 C-6.01693383 -0.57975697 -3.90126052 -0.6269883 0 0 Z " fill="#271D53" transform="translate(141,100)"/>
<path d="M0 0 C1.41569064 -0.08167446 2.83276805 -0.13949698 4.25 -0.1875 C5.43335937 -0.23970703 5.43335937 -0.23970703 6.640625 -0.29296875 C9.69564805 0.08638014 10.93214531 0.70656116 13 3 C13.390625 6.13671875 13.390625 6.13671875 13.25 9.6875 C13.21390625 10.86699219 13.1778125 12.04648438 13.140625 13.26171875 C13.07101563 14.61716797 13.07101563 14.61716797 13 16 C9.24252497 17.25249168 5.93040706 17.45035914 2 17 C0 15.8125 0 15.8125 -1 14 C-1.3125 11.4375 -1.3125 11.4375 -1 9 C1 7 1 7 2.9453125 6.8046875 C4.96354167 6.86979167 6.98177083 6.93489583 9 7 C8.67 6.01 8.34 5.02 8 4 C5.36 4 2.72 4 0 4 C0 2.68 0 1.36 0 0 Z " fill="#24194F" transform="translate(66,100)"/>
<path d="M0 0 C3.90905505 0.54726771 5.4984284 1.50191998 8.125 4.4375 C8.4375 7.6875 8.4375 7.6875 8.125 10.4375 C4.495 10.4375 0.865 10.4375 -2.875 10.4375 C0.43512244 13.74762244 1.65659589 13.94101065 6.125 14.4375 C5.795 15.4275 5.465 16.4175 5.125 17.4375 C0.89370759 17.85233259 -1.25426643 17.83839043 -4.875 15.5 C-7.33651739 11.73080149 -7.15268022 9.84650764 -6.5625 5.5234375 C-5.34702774 1.83558416 -3.80843556 0.57954454 0 0 Z " fill="#1B114E" transform="translate(167.875,74.5625)"/>
<path d="M0 0 C7.25388601 -0.3626943 7.25388601 -0.3626943 10.25 1.09375 C12.81363206 3.88627778 12.39712675 5.97254967 12.25 9.6875 C12.21390625 10.86699219 12.1778125 12.04648438 12.140625 13.26171875 C12.07101563 14.61716797 12.07101563 14.61716797 12 16 C8.93570224 17.53214888 6.3834358 17.22938548 3 17 C0.0625 15.5 0.0625 15.5 -2 14 C-1.25 9.25 -1.25 9.25 1 7 C4.625 6.875 4.625 6.875 8 7 C7.67 6.01 7.34 5.02 7 4 C4.69 4 2.38 4 0 4 C0 2.68 0 1.36 0 0 Z " fill="#30285C" transform="translate(84,75)"/>
<path d="M0 0 C1.32 0 2.64 0 4 0 C4 1.98 4 3.96 4 6 C5.6396875 5.87625 5.6396875 5.87625 7.3125 5.75 C11 6 11 6 12.71875 7.625 C14.36376846 10.67430252 14.29981119 12.80579014 14.1875 16.25 C14.16042969 17.32765625 14.13335937 18.4053125 14.10546875 19.515625 C14.07066406 20.33546875 14.03585938 21.1553125 14 22 C12.68 22 11.36 22 10 22 C9.67 18.37 9.34 14.74 9 11 C7.35 10.67 5.7 10.34 4 10 C3.67 13.96 3.34 17.92 3 22 C2.01 22 1.02 22 0 22 C0 14.74 0 7.48 0 0 Z " fill="#221B54" transform="translate(118,69)"/>
<path d="M0 0 C2.3125 0 2.3125 0 5 1 C6.41288147 3.61051928 7.135305 6.13285344 8 9 C9.32 6.03 10.64 3.06 12 0 C12.99 0 13.98 0 15 0 C14.43964356 8.03177563 11.45384414 16.31923379 7 23 C5.68 23 4.36 23 3 23 C3.433125 22.113125 3.86625 21.22625 4.3125 20.3125 C5.88944037 15.08821457 3.23457062 10.65168645 1.1640625 5.890625 C0 3 0 3 0 0 Z " fill="#44386A" transform="translate(82,100)"/>
<path d="M0 0 C1.22589844 0.01353516 1.22589844 0.01353516 2.4765625 0.02734375 C3.41628906 0.04474609 3.41628906 0.04474609 4.375 0.0625 C4.045 1.3825 3.715 2.7025 3.375 4.0625 C1.9828125 3.9696875 1.9828125 3.9696875 0.5625 3.875 C-2.50899522 3.83286523 -2.50899522 3.83286523 -4.5 5.0625 C-6.37821874 8.40155554 -5.92579454 11.27248874 -5.625 15.0625 C-2.61882731 18.06867269 0.19881598 17.65835316 4.375 18.0625 C4.375 19.0525 4.375 20.0425 4.375 21.0625 C0.33818308 21.95059972 -2.02289542 22.28970927 -5.9375 20.8125 C-8.625 19.0625 -8.625 19.0625 -10.625 16.0625 C-11.33707438 11.17733856 -11.35352643 7.2524265 -8.75 3 C-5.67367894 0.19511903 -4.06298342 -0.05804262 0 0 Z " fill="#100544" transform="translate(73.625,69.9375)"/>
<path d="M0 0 C0.78246094 -0.01417969 1.56492188 -0.02835937 2.37109375 -0.04296875 C4.5625 0.1875 4.5625 0.1875 7.5625 2.1875 C7.85546875 5.4453125 7.85546875 5.4453125 7.75 9.3125 C7.72292969 10.59382813 7.69585937 11.87515625 7.66796875 13.1953125 C7.63316406 14.18273437 7.59835938 15.17015625 7.5625 16.1875 C6.5725 16.1875 5.5825 16.1875 4.5625 16.1875 C4.2325 12.5575 3.9025 8.9275 3.5625 5.1875 C1.5825 4.5275 -0.3975 3.8675 -2.4375 3.1875 C-2.4375 7.4775 -2.4375 11.7675 -2.4375 16.1875 C-3.7575 16.1875 -5.0775 16.1875 -6.4375 16.1875 C-6.4375 11.2375 -6.4375 6.2875 -6.4375 1.1875 C-4.0978331 0.01766655 -2.60358473 0.0213759 0 0 Z " fill="#271F53" transform="translate(155.4375,99.8125)"/>
<path d="M0 0 C5.61 0 11.22 0 17 0 C15.94138884 4.23444465 15.39168314 5.42778393 12 8 C8.984375 8.390625 8.984375 8.390625 5.75 8.25 C4.67234375 8.21390625 3.5946875 8.1778125 2.484375 8.140625 C1.25460938 8.07101563 1.25460938 8.07101563 0 8 C0 5.36 0 2.72 0 0 Z " fill="#F9B62B" transform="translate(30,79)"/>
<path d="M0 0 C1.8871875 0.061875 1.8871875 0.061875 3.8125 0.125 C3.8125 1.115 3.8125 2.105 3.8125 3.125 C2.678125 3.24875 1.54375 3.3725 0.375 3.5 C-1.3884375 3.809375 -1.3884375 3.809375 -3.1875 4.125 C-3.5175 4.785 -3.8475 5.445 -4.1875 6.125 C-3.62160156 6.25777344 -3.05570313 6.39054687 -2.47265625 6.52734375 C-1.73917969 6.70394531 -1.00570312 6.88054687 -0.25 7.0625 C0.84634766 7.32353516 0.84634766 7.32353516 1.96484375 7.58984375 C3.8125 8.125 3.8125 8.125 4.8125 9.125 C5 11.5625 5 11.5625 4.8125 14.125 C2.8125 16.125 2.8125 16.125 0.4296875 16.3203125 C-0.47523438 16.29710938 -1.38015625 16.27390625 -2.3125 16.25 C-3.67761719 16.22292969 -3.67761719 16.22292969 -5.0703125 16.1953125 C-5.76898438 16.17210938 -6.46765625 16.14890625 -7.1875 16.125 C-7.1875 15.135 -7.1875 14.145 -7.1875 13.125 C-4.5475 13.125 -1.9075 13.125 0.8125 13.125 C0.8125 12.135 0.8125 11.145 0.8125 10.125 C-0.321875 9.980625 -1.45625 9.83625 -2.625 9.6875 C-6.1875 9.125 -6.1875 9.125 -7.1875 8.125 C-7.4375 5.1875 -7.4375 5.1875 -7.1875 2.125 C-4.09861478 0.06574319 -3.47814073 -0.1140374 0 0 Z " fill="#0C033E" transform="translate(189.1875,99.875)"/>
<path d="M0 0 C0.94875 0.04125 1.8975 0.0825 2.875 0.125 C2.875 1.115 2.875 2.105 2.875 3.125 C1.9159375 3.2796875 1.9159375 3.2796875 0.9375 3.4375 C0.256875 3.664375 -0.42375 3.89125 -1.125 4.125 C-1.455 5.115 -1.785 6.105 -2.125 7.125 C-0.805 7.125 0.515 7.125 1.875 7.125 C1.875 8.115 1.875 9.105 1.875 10.125 C0.555 10.125 -0.765 10.125 -2.125 10.125 C-2.125 14.085 -2.125 18.045 -2.125 22.125 C-3.445 22.125 -4.765 22.125 -6.125 22.125 C-6.125 18.165 -6.125 14.205 -6.125 10.125 C-6.785 10.125 -7.445 10.125 -8.125 10.125 C-8.125 9.135 -8.125 8.145 -8.125 7.125 C-7.465 7.125 -6.805 7.125 -6.125 7.125 C-6.00125 6.34125 -5.8775 5.5575 -5.75 4.75 C-4.82468755 0.8636877 -4.01182624 0.16047305 0 0 Z " fill="#241A52" transform="translate(144.125,68.875)"/>
<path d="M0 0 C0.99 0 1.98 0 3 0 C3 1.32 3 2.64 3 4 C4.65 4 6.3 4 8 4 C8 5.32 8 6.64 8 8 C6.68 8 5.36 8 4 8 C4 10.97 4 13.94 4 17 C5.65 17 7.3 17 9 17 C9 17.99 9 18.98 9 20 C2.25 20.125 2.25 20.125 0 19 C0 15.04 0 11.08 0 7 C-0.99 7 -1.98 7 -3 7 C-3 6.01 -3 5.02 -3 4 C-2.01 4 -1.02 4 0 4 C0 2.68 0 1.36 0 0 Z " fill="#07013E" transform="translate(170,96)"/>
<path d="M0 0 C1.8871875 0.061875 1.8871875 0.061875 3.8125 0.125 C3.8125 1.115 3.8125 2.105 3.8125 3.125 C1.5025 3.125 -0.8075 3.125 -3.1875 3.125 C-2.8575 4.115 -2.5275 5.105 -2.1875 6.125 C0.78753122 7.28335673 0.78753122 7.28335673 3.8125 8.125 C4.8125 9.125 4.8125 9.125 5 11.5625 C4.8125 14.125 4.8125 14.125 2.8125 16.125 C0.4296875 16.3203125 0.4296875 16.3203125 -2.3125 16.25 C-3.67761719 16.22292969 -3.67761719 16.22292969 -5.0703125 16.1953125 C-5.76898438 16.17210938 -6.46765625 16.14890625 -7.1875 16.125 C-7.1875 15.135 -7.1875 14.145 -7.1875 13.125 C-4.2175 13.125 -1.2475 13.125 1.8125 13.125 C1.8125 12.135 1.8125 11.145 1.8125 10.125 C-2.6425 9.135 -2.6425 9.135 -7.1875 8.125 C-7.375 5.25 -7.375 5.25 -7.1875 2.125 C-4.09861478 0.06574319 -3.47814073 -0.1140374 0 0 Z " fill="#1F174F" transform="translate(108.1875,74.875)"/>
<path d="M0 0 C10.4245283 -0.36792453 10.4245283 -0.36792453 12.90625 1.21875 C14 3 14 3 13.85546875 5.26171875 C13.63503906 6.06222656 13.41460937 6.86273438 13.1875 7.6875 C12.97480469 8.49574219 12.76210938 9.30398437 12.54296875 10.13671875 C12.27419922 11.05904297 12.27419922 11.05904297 12 12 C11.34 11.67 10.68 11.34 10 11 C10 9.02 10 7.04 10 5 C7.69 4.34 5.38 3.68 3 3 C3 5.97 3 8.94 3 12 C2.34 12 1.68 12 1 12 C1 14.64 1 17.28 1 20 C0.67 20 0.34 20 0 20 C0 13.4 0 6.8 0 0 Z " fill="#060143" transform="translate(47,95)"/>
<path d="M0 0 C3.69212837 -0.3434538 5.60790131 -0.221621 8.875 1.625 C11 4 11 4 11.3125 7.25 C11.1578125 8.61125 11.1578125 8.61125 11 10 C7.7 10 4.4 10 1 10 C0.34 8.68 -0.32 7.36 -1 6 C0.63412443 4.29159719 1.86906094 3.06546953 4 2 C2.68 1.34 1.36 0.68 0 0 Z " fill="#2F245A" transform="translate(165,75)"/>
<path d="M0 0 C1.23556641 0.01740234 1.23556641 0.01740234 2.49609375 0.03515625 C3.32238281 0.04417969 4.14867188 0.05320312 5 0.0625 C5.63808594 0.07410156 6.27617188 0.08570312 6.93359375 0.09765625 C6.93359375 0.42765625 6.93359375 0.75765625 6.93359375 1.09765625 C4.95359375 1.42765625 2.97359375 1.75765625 0.93359375 2.09765625 C0.93359375 3.08765625 0.93359375 4.07765625 0.93359375 5.09765625 C3.90359375 5.59265625 3.90359375 5.59265625 6.93359375 6.09765625 C7.26359375 4.44765625 7.59359375 2.79765625 7.93359375 1.09765625 C8.26359375 1.09765625 8.59359375 1.09765625 8.93359375 1.09765625 C9.26359375 3.40765625 9.59359375 5.71765625 9.93359375 8.09765625 C6.86929599 9.62980513 4.31702955 9.32704173 0.93359375 9.09765625 C-2.00390625 7.59765625 -2.00390625 7.59765625 -4.06640625 6.09765625 C-2.99738005 0.14165312 -2.99738005 0.14165312 0 0 Z " fill="#1D1451" transform="translate(86.06640625,82.90234375)"/>
<path d="M0 0 C1.38226016 2.76452033 1.09525387 5.0461363 1.0625 8.125 C1.05347656 9.22070312 1.04445313 10.31640625 1.03515625 11.4453125 C1.02355469 12.28835937 1.01195313 13.13140625 1 14 C-0.32 14 -1.64 14 -3 14 C-3 10.04 -3 6.08 -3 2 C-4.65 1.67 -6.3 1.34 -8 1 C-8 0.67 -8 0.34 -8 0 C-4.71303767 -0.79953138 -3.28976808 -1.09658936 0 0 Z " fill="#2C1F55" transform="translate(124,102)"/>
<path d="M0 0 C2.31 0.33 4.62 0.66 7 1 C7.6875 3.3125 7.6875 3.3125 8 6 C6.875 7.8125 6.875 7.8125 5 9 C2.3125 9.1875 2.3125 9.1875 0 9 C0 6.03 0 3.06 0 0 Z " fill="#DFDDE4" transform="translate(50,98)"/>
<path d="M0 0 C2.31 0 4.62 0 7 0 C6.67 0.66 6.34 1.32 6 2 C4.35 2.33 2.7 2.66 1 3 C0.67 7.62 0.34 12.24 0 17 C-1.32 17 -2.64 17 -4 17 C-4.02686553 15.02090602 -4.04633375 13.04171029 -4.0625 11.0625 C-4.07410156 9.96035156 -4.08570312 8.85820313 -4.09765625 7.72265625 C-4 5 -4 5 -3 4 C-3.33 3.34 -3.66 2.68 -4 2 C-2.68 2 -1.36 2 0 2 C0 1.34 0 0.68 0 0 Z " fill="#32295A" transform="translate(115,100)"/>
<path d="M0 0 C2.64 0 5.28 0 8 0 C8 0.66 8 1.32 8 2 C6.68 2.33 5.36 2.66 4 3 C3.67 6.96 3.34 10.92 3 15 C2.01 15 1.02 15 0 15 C0 10.05 0 5.1 0 0 Z " fill="#140A47" transform="translate(150,76)"/>
<path d="M0 0 C0.33 1.32 0.66 2.64 1 4 C-0.32 4 -1.64 4 -3 4 C-3 6.97 -3 9.94 -3 13 C-1.35 13 0.3 13 2 13 C2 13.99 2 14.98 2 16 C-4.75 16.125 -4.75 16.125 -7 15 C-6.67 11.37 -6.34 7.74 -6 4 C-4.02 3.67 -2.04 3.34 0 3 C0 2.01 0 1.02 0 0 Z " fill="#483F6E" transform="translate(177,100)"/>
<path d="M0 0 C0.33 0.66 0.66 1.32 1 2 C0.67 2.66 0.34 3.32 0 4 C3.96 4 7.92 4 12 4 C12 4.99 12 5.98 12 7 C8.89951072 8.55024464 6.42105782 8.28992015 3 8 C0.0625 6.1875 0.0625 6.1875 -2 4 C-2 3.01 -2 2.02 -2 1 C-1.34 0.67 -0.68 0.34 0 0 Z " fill="#393260" transform="translate(132,109)"/>
<path d="M0 0 C1.8871875 0.061875 1.8871875 0.061875 3.8125 0.125 C3.8125 1.115 3.8125 2.105 3.8125 3.125 C1.5025 3.125 -0.8075 3.125 -3.1875 3.125 C-2.8575 4.445 -2.5275 5.765 -2.1875 7.125 C-3.1775 7.785 -4.1675 8.445 -5.1875 9.125 C-5.8475 8.795 -6.5075 8.465 -7.1875 8.125 C-7.375 5.25 -7.375 5.25 -7.1875 2.125 C-4.09861478 0.06574319 -3.47814073 -0.1140374 0 0 Z " fill="#2A2256" transform="translate(108.1875,74.875)"/>
<path d="M0 0 C2.475 0.495 2.475 0.495 5 1 C6.04976964 4.14930893 6.10131595 6.38814456 6.0625 9.6875 C6.05347656 10.68136719 6.04445313 11.67523438 6.03515625 12.69921875 C6.02355469 13.45847656 6.01195313 14.21773437 6 15 C3.75848118 12.75848118 3.03698675 10.9932888 1.875 8.0625 C1.52179688 7.18722656 1.16859375 6.31195313 0.8046875 5.41015625 C0 3 0 3 0 0 Z " fill="#241B53" transform="translate(82,100)"/>
<path d="M0 0 C0.99 0 1.98 0 3 0 C2.49202991 4.3177458 1.80317221 8.03302114 0 12 C-0.66 12 -1.32 12 -2 12 C-2.33 12.66 -2.66 13.32 -3 14 C-4.1750709 10.47478731 -3.72717795 9.34332144 -2.625 5.875 C-2.34914063 4.98554687 -2.07328125 4.09609375 -1.7890625 3.1796875 C-1 1 -1 1 0 0 Z " fill="#1B164F" transform="translate(94,100)"/>
<path d="M0 0 C1.32 0 2.64 0 4 0 C4 3.96 4 7.92 4 12 C2.68 12 1.36 12 0 12 C0 8.04 0 4.08 0 0 Z " fill="#0D0445" transform="translate(138,79)"/>
<path d="M0 0 C-0.33 1.32 -0.66 2.64 -1 4 C-1.928125 3.95875 -2.85625 3.9175 -3.8125 3.875 C-7.15809719 3.72863661 -7.15809719 3.72863661 -10 6 C-11.32 5.34 -12.64 4.68 -14 4 C-9.57391359 -0.5688634 -5.97980322 -0.46900417 0 0 Z " fill="#262253" transform="translate(78,70)"/>
<path d="M0 0 C0 1.65 0 3.3 0 5 C-0.33 4.34 -0.66 3.68 -1 3 C-2.65 3.33 -4.3 3.66 -6 4 C-6.33 4.99 -6.66 5.98 -7 7 C-7.66 7 -8.32 7 -9 7 C-9.33 5.35 -9.66 3.7 -10 2 C-6.3558226 -0.4294516 -4.28758728 -0.16179575 0 0 Z " fill="#180E46" transform="translate(141,100)"/>
<path d="M0 0 C-0.66 3.3 -1.32 6.6 -2 10 C-2.66 9.67 -3.32 9.34 -4 9 C-4 7.02 -4 5.04 -4 3 C-4.66 2.67 -5.32 2.34 -6 2 C-6 1.34 -6 0.68 -6 0 C-8.31 0 -10.62 0 -13 0 C-13 -0.33 -13 -0.66 -13 -1 C-4.57142857 -2.42857143 -4.57142857 -2.42857143 0 0 Z " fill="#1A0A4C" transform="translate(61,97)"/>
<path d="M0 0 C0.99 0 1.98 0 3 0 C3 3.96 3 7.92 3 12 C2.01 12 1.02 12 0 12 C0 8.04 0 4.08 0 0 Z " fill="#0A0343" transform="translate(160,104)"/>
<path d="M0 0 C3.625 0.375 3.625 0.375 7 1 C5.02 1.99 5.02 1.99 3 3 C3 4.32 3 5.64 3 7 C1.02 7.99 1.02 7.99 -1 9 C-1.625 5.625 -1.625 5.625 -2 2 C-1.34 1.34 -0.68 0.68 0 0 Z " fill="#21194E" transform="translate(67,107)"/>
<path d="M0 0 C2.97 0 5.94 0 9 0 C9.33 2.31 9.66 4.62 10 7 C9.34 6.01 8.68 5.02 8 4 C6.02252878 3.63702064 6.02252878 3.63702064 3.875 3.8125 C2.59625 3.874375 1.3175 3.93625 0 4 C0 2.68 0 1.36 0 0 Z " fill="#070232" transform="translate(66,100)"/>
<path d="M0 0 C0 3.96 0 7.92 0 12 C-0.99 12 -1.98 12 -3 12 C-3 8.37 -3 4.74 -3 1 C-1 0 -1 0 0 0 Z " fill="#0F023D" transform="translate(132,79)"/>
<path d="M0 0 C7.50769231 -0.36923077 7.50769231 -0.36923077 10 1.5 C10.495 2.2425 10.495 2.2425 11 3 C7.32589215 4.17571451 3.83070817 4.07366746 0 4 C0 2.68 0 1.36 0 0 Z " fill="#261D51" transform="translate(84,75)"/>
<path d="M0 0 C2.01822917 0.06510417 4.03645833 0.13020833 6.0546875 0.1953125 C6.0546875 1.1853125 6.0546875 2.1753125 6.0546875 3.1953125 C4.9409375 3.3190625 3.8271875 3.4428125 2.6796875 3.5703125 C-0.97634927 3.8418938 -0.97634927 3.8418938 -2.9453125 6.1953125 C-3.5703125 4.3203125 -3.5703125 4.3203125 -3.9453125 2.1953125 C-1.9453125 0.1953125 -1.9453125 0.1953125 0 0 Z " fill="#100A46" transform="translate(186.9453125,99.8046875)"/>
<path d="M0 0 C1.2065625 0.0309375 1.2065625 0.0309375 2.4375 0.0625 C2.7675 1.7125 3.0975 3.3625 3.4375 5.0625 C1.4575 5.0625 -0.5225 5.0625 -2.5625 5.0625 C-3.125 3.125 -3.125 3.125 -3.5625 1.0625 C-2.5625 0.0625 -2.5625 0.0625 0 0 Z " fill="#D5D2DC" transform="translate(89.5625,83.9375)"/>
<path d="M0 0 C3.625 0.375 3.625 0.375 7 1 C3.25 3 3.25 3 1 3 C0.71125 3.598125 0.4225 4.19625 0.125 4.8125 C-1 7 -1 7 -3 10 C-2.25 2.25 -2.25 2.25 0 0 Z " fill="#120B45" transform="translate(164,76)"/>
<path d="M0 0 C7.75 -0.125 7.75 -0.125 10 1 C10 2.32 10 3.64 10 5 C9.34 5 8.68 5 8 5 C8 4.34 8 3.68 8 3 C7.05125 3.020625 6.1025 3.04125 5.125 3.0625 C2 3 2 3 0 2 C0 1.34 0 0.68 0 0 Z " fill="#D7D5DD" transform="translate(166,86)"/>
<path d="M0 0 C1.38226016 2.76452033 1.09525387 5.0461363 1.0625 8.125 C1.05347656 9.22070312 1.04445313 10.31640625 1.03515625 11.4453125 C1.02355469 12.28835937 1.01195313 13.13140625 1 14 C0.67 14 0.34 14 0 14 C-0.66 10.04 -1.32 6.08 -2 2 C-4.97 1.505 -4.97 1.505 -8 1 C-8 0.67 -8 0.34 -8 0 C-4.71303767 -0.79953138 -3.28976808 -1.09658936 0 0 Z " fill="#0B053B" transform="translate(124,102)"/>
<path d="M0 0 C1.2065625 0.0309375 1.2065625 0.0309375 2.4375 0.0625 C2.4375 1.7125 2.4375 3.3625 2.4375 5.0625 C0.7875 5.0625 -0.8625 5.0625 -2.5625 5.0625 C-3.125 3.125 -3.125 3.125 -3.5625 1.0625 C-2.5625 0.0625 -2.5625 0.0625 0 0 Z " fill="#EAE8ED" transform="translate(72.5625,108.9375)"/>
<path d="M0 0 C0.268125 0.639375 0.53625 1.27875 0.8125 1.9375 C1.88667752 4.33131686 1.88667752 4.33131686 5 5 C4.67 5.66 4.34 6.32 4 7 C5.98 7 7.96 7 10 7 C9.34 8.32 8.68 9.64 8 11 C8 10.01 8 9.02 8 8 C6.865625 7.855625 5.73125 7.71125 4.5625 7.5625 C1 7 1 7 0 6 C-0.04080783 4.00041636 -0.04254356 1.99954746 0 0 Z " fill="#382F5F" transform="translate(182,102)"/>
<path d="M0 0 C2.97 0 5.94 0 9 0 C9 0.33 9 0.66 9 1 C7.02 1.33 5.04 1.66 3 2 C3 3.65 3 5.3 3 7 C1.68 6.34 0.36 5.68 -1 5 C-0.67 3.35 -0.34 1.7 0 0 Z " fill="#120944" transform="translate(84,83)"/>
<path d="M0 0 C0.66 0 1.32 0 2 0 C2 0.66 2 1.32 2 2 C4.31 2 6.62 2 9 2 C9 2.33 9 2.66 9 3 C6.69 3 4.38 3 2 3 C2 4.98 2 6.96 2 9 C1.01 8.67 0.02 8.34 -1 8 C-0.67 5.36 -0.34 2.72 0 0 Z " fill="#1E134D" transform="translate(48,107)"/>
<path d="M0 0 C0.99 0 1.98 0 3 0 C3 1.32 3 2.64 3 4 C4.32 4.33 5.64 4.66 7 5 C5.72125 5.144375 4.4425 5.28875 3.125 5.4375 C0.74307106 5.70642746 -0.84452691 5.92226346 -3 7 C-3 6.01 -3 5.02 -3 4 C-2.01 4 -1.02 4 0 4 C0 2.68 0 1.36 0 0 Z " fill="#1B1143" transform="translate(170,96)"/>
<path d="M0 0 C1.65 0 3.3 0 5 0 C5.33 1.32 5.66 2.64 6 4 C3.69 4 1.38 4 -1 4 C-0.67 2.68 -0.34 1.36 0 0 Z " fill="#E8E6EB" transform="translate(135,103)"/>
<path d="M0 0 C0.33 1.32 0.66 2.64 1 4 C-1.64 4 -4.28 4 -7 4 C-7.33 3.34 -7.66 2.68 -8 2 C-5.36 1.34 -2.72 0.68 0 0 Z " fill="#292559" transform="translate(192,88)"/>
<path d="M0 0 C0 0.99 0 1.98 0 3 C-2.31 3.33 -4.62 3.66 -7 4 C-7.66 3.01 -8.32 2.02 -9 1 C-5.92677456 0.08941469 -3.19902639 -0.08886184 0 0 Z " fill="#1E0F4F" transform="translate(78,88)"/>
<path d="M0 0 C0 0.99 0 1.98 0 3 C-2.31 3 -4.62 3 -7 3 C-7 2.01 -7 1.02 -7 0 C-4.3333581 -1.33332095 -2.83319697 -0.67102033 0 0 Z " fill="#DEDCE2" transform="translate(172,79)"/>
<path d="M0 0 C1.65 0.33 3.3 0.66 5 1 C5.33 1.99 5.66 2.98 6 4 C3.69 4 1.38 4 -1 4 C-0.67 2.68 -0.34 1.36 0 0 Z " fill="#E7E5EA" transform="translate(185,78)"/>
<path d="M0 0 C0.99 0.33 1.98 0.66 3 1 C3 1.99 3 2.98 3 4 C2.34 4 1.68 4 1 4 C1 7.63 1 11.26 1 15 C0.67 15 0.34 15 0 15 C-0.19390729 12.68802845 -0.37996367 10.3753971 -0.5625 8.0625 C-0.71912109 6.13083984 -0.71912109 6.13083984 -0.87890625 4.16015625 C-0.91886719 3.11730469 -0.95882812 2.07445313 -1 1 C-0.67 0.67 -0.34 0.34 0 0 Z " fill="#281F54" transform="translate(128,76)"/>
<path d="M0 0 C0.66 0.66 1.32 1.32 2 2 C1.625 4.625 1.625 4.625 1 7 C-0.32 7 -1.64 7 -3 7 C-1.125 2.25 -1.125 2.25 0 0 Z " fill="#2A2356" transform="translate(88,116)"/>
<path d="M0 0 C-3 2 -3 2 -5 2 C-5.66 3.65 -6.32 5.3 -7 7 C-7.33 7 -7.66 7 -8 7 C-8 5.02 -8 3.04 -8 1 C-5.29120665 -0.35439668 -2.99066732 -0.06501451 0 0 Z " fill="#2E245A" transform="translate(190,75)"/>
<path d="M0 0 C3.3125 -0.1875 3.3125 -0.1875 7 0 C7.99 0.99 8.98 1.98 10 3 C6.7 3 3.4 3 0 3 C0 2.01 0 1.02 0 0 Z " fill="#37325D" transform="translate(182,113)"/>
<path d="M0 0 C0 0.66 0 1.32 0 2 C-6.75 3.125 -6.75 3.125 -9 2 C-9 1.34 -9 0.68 -9 0 C-5.93109813 -1.53445094 -3.29905734 -0.54984289 0 0 Z " fill="#1C1150" transform="translate(110,101)"/>
<path d="M0 0 C0.99 0 1.98 0 3 0 C2.67 2.31 2.34 4.62 2 7 C0.4375 5.1875 0.4375 5.1875 -1 3 C-0.67 2.01 -0.34 1.02 0 0 Z " fill="#372F60" transform="translate(94,100)"/>
<path d="M0 0 C6.15234375 0.5859375 6.15234375 0.5859375 8 1 C8.33 1.66 8.66 2.32 9 3 C6.03 3 3.06 3 0 3 C0 2.01 0 1.02 0 0 Z " fill="#020039" transform="translate(101,88)"/>
<path d="M0 0 C2.75 -0.25 2.75 -0.25 6 0 C8.375 2 8.375 2 10 4 C8.68 4 7.36 4 6 4 C6 3.34 6 2.68 6 2 C3.03 1.505 3.03 1.505 0 1 C0 0.67 0 0.34 0 0 Z " fill="#3C3463" transform="translate(165,75)"/>
<path d="M0 0 C0.66 0.66 1.32 1.32 2 2 C1.7578125 4.1640625 1.7578125 4.1640625 1.125 6.625 C0.92132813 7.44226563 0.71765625 8.25953125 0.5078125 9.1015625 C0.34023438 9.72804688 0.17265625 10.35453125 0 11 C-0.66 10.67 -1.32 10.34 -2 10 C-2.25 3.375 -2.25 3.375 0 0 Z " fill="#281C53" transform="translate(59,96)"/>
<path d="M0 0 C2.64 0.33 5.28 0.66 8 1 C5.4345406 3.5654594 3.52313332 3.54046087 0 4 C0 2.68 0 1.36 0 0 Z " fill="#150D45" transform="translate(66,100)"/>
</svg>
