<?xml version="1.0" encoding="UTF-8"?>
<svg version="1.1" xmlns="http://www.w3.org/2000/svg" width="512" height="512">
<path d="M0 0 C1.2457088 -0.00453111 2.49141761 -0.00906223 3.77487516 -0.01373065 C7.19810264 -0.02412775 10.62111839 -0.02571313 14.04434633 -0.02334189 C17.75008904 -0.02293095 21.45580131 -0.03399931 25.16152954 -0.04345703 C32.40970505 -0.06000949 39.65784801 -0.065564 46.90604085 -0.06668179 C52.80471041 -0.0676352 58.70336933 -0.07176006 64.60203552 -0.07808304 C81.36311358 -0.09568135 98.12416612 -0.10492436 114.88525349 -0.10342209 C116.2382255 -0.10330222 116.2382255 -0.10330222 117.61853027 -0.10317993 C118.97317411 -0.10305729 118.97317411 -0.10305729 120.3551845 -0.10293217 C134.97470402 -0.10212013 149.5941203 -0.1212408 164.21360999 -0.14945666 C179.26133892 -0.17826742 194.30901764 -0.1919924 209.35677481 -0.19026911 C217.79016579 -0.18960793 226.2234486 -0.19497982 234.65681458 -0.21662521 C241.84014828 -0.23494543 249.0233248 -0.23909645 256.20667189 -0.22560637 C259.86292414 -0.21913025 263.51887582 -0.21876183 267.17509842 -0.23631287 C304.9891643 -0.40627604 335.84111172 8.18062099 363.76208496 34.51742554 C389.693346 61.65143523 396.56654616 93.32816262 396.46675897 129.76008558 C396.45990212 133.47113618 396.47048218 137.18214624 396.47869873 140.89318848 C396.49196829 148.14217212 396.48918878 155.39106205 396.48046081 162.64004922 C396.47365779 168.53675362 396.4727788 174.43343195 396.47603226 180.33013916 C396.47649196 181.17261229 396.47695166 182.01508543 396.47742528 182.88308805 C396.47838456 184.59509381 396.4793572 186.30709957 396.48034306 188.01910532 C396.4888771 204.03470174 396.47909411 220.05024646 396.46294196 236.0658344 C396.44954059 249.77791408 396.45186924 263.48991754 396.46569824 277.20199585 C396.48178927 293.16422687 396.48805331 309.1264127 396.47886145 325.0886507 C396.47790591 326.79400443 396.47696279 328.49935817 396.47603226 330.20471191 C396.47556943 331.04355846 396.4751066 331.882405 396.47462975 332.74667114 C396.47205041 338.62940403 396.47638795 344.51210801 396.48347092 350.39483643 C396.4919254 357.57378434 396.48952344 364.75263397 396.47362868 371.93157077 C396.46579868 375.58730009 396.46256309 379.24286616 396.47257614 382.8985939 C396.51574014 400.07450967 396.46024016 416.5265096 390.38708496 432.82992554 C390.13289795 433.52626099 389.87871094 434.22259644 389.61682129 434.94003296 C378.6256621 463.98551169 356.09304593 488.03701707 327.8482666 500.9246521 C312.5820772 507.51745625 296.75045533 510.57987389 280.14916992 510.53485107 C278.90346112 510.53938219 277.65775231 510.5439133 276.37429476 510.54858172 C272.95106728 510.55897883 269.52805153 510.5605642 266.10482359 510.55819297 C262.39908088 510.55778202 258.69336861 510.56885039 254.98764038 510.57830811 C247.73946487 510.59486057 240.49132191 510.60041508 233.24312907 510.60153286 C227.34445951 510.60248627 221.44580059 510.60661113 215.5471344 510.61293411 C198.78605634 510.63053242 182.0250038 510.63977543 165.26391643 510.63827316 C163.91094442 510.6381533 163.91094442 510.6381533 162.53063965 510.63803101 C161.62754376 510.63794924 160.72444786 510.63786748 159.79398543 510.63778324 C145.1744659 510.6369712 130.55504962 510.65609188 115.93555993 510.68430774 C100.887831 510.71311849 85.84015229 510.72684348 70.79239511 510.72512019 C62.35900413 510.72445901 53.92572132 510.72983089 45.49235535 510.75147629 C38.30902164 510.7697965 31.12584512 510.77394753 23.94249803 510.76045744 C20.28624578 510.75398132 16.6302941 510.7536129 12.9740715 510.77116394 C-24.83999438 510.94112712 -55.6919418 502.35423008 -83.61291504 476.01742554 C-109.54417608 448.88341584 -116.41737623 417.20668846 -116.31758904 380.77476549 C-116.3107322 377.06371489 -116.32131225 373.35270483 -116.32952881 369.6416626 C-116.34279836 362.39267895 -116.34001886 355.14378902 -116.33129089 347.89480186 C-116.32448786 341.99809745 -116.32360888 336.10141913 -116.32686234 330.20471191 C-116.32732203 329.36223878 -116.32778173 328.51976565 -116.32825536 327.65176302 C-116.32921464 325.93975726 -116.33018728 324.22775151 -116.33117314 322.51574576 C-116.33970717 306.50014934 -116.32992419 290.48460461 -116.31377204 274.46901667 C-116.30037067 260.75693699 -116.30269932 247.04493353 -116.31652832 233.33285522 C-116.33261935 217.3706242 -116.33888339 201.40843837 -116.32969153 185.44620037 C-116.32873598 183.74084664 -116.32779287 182.0354929 -116.32686234 180.33013916 C-116.32639951 179.49129262 -116.32593668 178.65244607 -116.32545983 177.78817993 C-116.32288049 171.90544704 -116.32721803 166.02274306 -116.33430099 160.14001465 C-116.34275548 152.96106674 -116.34035352 145.7822171 -116.32445876 138.60328031 C-116.31662875 134.94755098 -116.31339317 131.29198492 -116.32340622 127.63625717 C-116.36657022 110.4603414 -116.31107024 94.00834147 -110.23791504 77.70492554 C-109.85663452 76.66042236 -109.85663452 76.66042236 -109.46765137 75.59481812 C-98.47649218 46.54933938 -75.943876 22.49783401 -47.69909668 9.61019897 C-32.43290728 3.01739482 -16.6012854 -0.04502281 0 0 Z " fill="#FEFEFE" transform="translate(115.9254150390625,0.732574462890625)"/>
<path d="M0 0 C4.53830893 0.49062799 4.53830893 0.49062799 6.55078125 2.7109375 C8.62748552 5.99112268 9.5895125 9.46195439 10.7421875 13.1484375 C13.99779068 20.52915278 18.88866057 23.38499241 25.8125 26.875 C34.5816853 31.5226243 42.32949029 36.28394488 46 46 C46.35198538 47.66282747 46.68829579 49.3291531 47 51 C47.56847656 50.61328125 48.13695312 50.2265625 48.72265625 49.828125 C58.8476968 42.99921618 67.02450039 38.90219304 79.375 38.6875 C89.47639061 38.2582128 95.65548984 35.62641123 102.75 28.25 C103.76320313 27.08210938 103.76320313 27.08210938 104.796875 25.890625 C107.597333 23.48739508 109.31942135 22.98072995 113 23 C115.37890625 24.53125 115.37890625 24.53125 117 27 C118.46804155 43.04507385 111.80658311 60.91512123 102.1640625 73.46484375 C90.92670661 86.62918305 75.26157782 94.61907377 58 96 C56.0361427 97.9638573 56.728052 101.79850227 56.625 104.5 C54.5537177 145.10994523 38.24923543 182.49646081 11.71875 212.84375 C8.60584553 216.41973116 5.77006287 220.15269046 3 224 C4.134375 224.350625 5.26875 224.70125 6.4375 225.0625 C11.228049 226.65934967 15.89231185 228.52310462 20.5625 230.4375 C21.27011475 230.72568604 21.97772949 231.01387207 22.70678711 231.31079102 C35.6768222 236.6768222 35.6768222 236.6768222 38 239 C38.71078995 246.10789949 38.71078995 246.10789949 35.88671875 249.65234375 C26.58754056 257.21500423 9.35770616 255.85770741 -2 255 C-8.17586591 254.24638936 -14.26719889 253.02566087 -20.1015625 250.8359375 C-23.37159119 249.89282949 -24.80958961 249.87633345 -28 251 C-29.96655292 252.25859387 -31.87865845 253.60376589 -33.75 255 C-63.42575737 276.38438367 -101.33255235 282.40421337 -137.1875 276.8125 C-169.58819153 271.10199387 -195.39800823 254.15628572 -219 232 C-219.63679688 231.42894531 -220.27359375 230.85789062 -220.9296875 230.26953125 C-240.90492811 211.6801327 -254.77471992 181.60141122 -259 155 C-259.20367187 153.72382813 -259.40734375 152.44765625 -259.6171875 151.1328125 C-263.35793383 125.340212 -261.26815267 99.32659076 -249 76 C-248.68659668 75.38979004 -248.37319336 74.77958008 -248.05029297 74.15087891 C-243.63860297 65.65271245 -238.44640004 58.11150481 -232 51 C-231.56204102 50.51289551 -231.12408203 50.02579102 -230.67285156 49.52392578 C-212.06088783 29.07966216 -188.31821254 19.33499902 -161 17 C-157.54033525 16.8434477 -154.08789317 16.81219423 -150.625 16.8125 C-149.17806763 16.80391968 -149.17806763 16.80391968 -147.7019043 16.79516602 C-142.34508839 16.81237631 -137.27463555 17.17802051 -131.99780273 18.07470703 C-121.38635048 19.83636696 -114.14456771 17.04797905 -104.39990234 12.95605469 C-94.58504818 9.04608837 -84.32823691 6.58269707 -73.75 6.5 C-73.07114746 6.49363525 -72.39229492 6.48727051 -71.69287109 6.48071289 C-66.7902217 6.60722105 -63.32954791 7.89130827 -59 10 C-59 10.99 -59 11.98 -59 13 C-60.4609375 14.38671875 -60.4609375 14.38671875 -62.375 15.6875 C-63.00148438 16.12449219 -63.62796875 16.56148437 -64.2734375 17.01171875 C-66 18 -66 18 -68 18 C-68.28875 18.5775 -68.5775 19.155 -68.875 19.75 C-70 22 -70 22 -71.125 23.75 C-72.74591054 27.91805568 -72.73949912 31.79455262 -71.3359375 35.98046875 C-68.25019875 41.88106078 -63.18710671 44.85949015 -57.73730469 48.42626953 C-54.12923896 50.85696614 -50.7944916 53.51016109 -47.5 56.34765625 C-46.90228287 56.8614534 -46.30456573 57.37525055 -45.68873596 57.90461731 C-37.70390936 64.8769456 -30.38959302 72.54430125 -23.02905273 80.1628418 C-12.49427862 91.04036378 -1.42019849 101.46019402 13 107 C13.99 107 14.98 107 16 107 C16.8427743 104.60712296 17.67437002 102.21128981 18.5 99.8125 C18.85771484 98.80219727 18.85771484 98.80219727 19.22265625 97.77148438 C20.48727592 94.06795533 21.30451221 90.92059464 21 87 C20.12601562 86.59974609 20.12601562 86.59974609 19.234375 86.19140625 C5.52495771 78.88131486 -3.48313466 63.92465037 -7.9375 49.5 C-11.24956225 34.07821015 -10.55723093 16.84354628 -2.25 3.1875 C-1.13625 1.6096875 -1.13625 1.6096875 0 0 Z " fill="#4D6BFF" transform="translate(328,117)"/>
<path d="M0 0 C0.65484375 0.53238281 1.3096875 1.06476563 1.984375 1.61328125 C6.51483139 5.33186382 10.23528149 9.52075329 14 14 C14.69351563 14.78246094 15.38703125 15.56492187 16.1015625 16.37109375 C26.15268625 27.95173634 34.49811164 40.87446553 43.0859375 53.55078125 C56.19800756 72.87528345 70.3641088 89.73163956 88.80078125 104.203125 C90.66095935 105.72298632 92.32064795 107.28965471 94 109 C68.21310034 109.78370472 53.22637502 105.4509202 32.99438477 89.41235352 C12.86682989 72.69936331 12.86682989 72.69936331 -11 66 C-13.43414746 67.97066405 -13.43414746 67.97066405 -13.0625 71.75 C-12.39976342 77.05189267 -9.96893877 81.46450547 -7.35180664 86.03808594 C-5.80734208 88.83671109 -4.96797515 90.5876801 -5.21875 93.81640625 C-6.14739115 96.41195826 -6.73406642 97.41384649 -9 99 C-19.6557287 102.89343933 -28.71842841 100.16722904 -38.79296875 95.78515625 C-46.9750005 91.6155832 -53.98222353 85.8558512 -61 80 C-61.92296875 79.23300781 -62.8459375 78.46601563 -63.796875 77.67578125 C-92.19613767 53.11306494 -108.5124866 13.58143093 -111.25 -23.375 C-111.55133327 -31.20966511 -111.55133327 -31.20966511 -109.4140625 -34.2734375 C-79.9112508 -55.37415396 -22.15132002 -18.96064975 0 0 Z " fill="#FEFEFF" transform="translate(203,254)"/>
<path d="M0 0 C15.13242572 7.71510077 26.69370897 23.22344413 33.5 38.5625 C33.9375 41.5625 33.9375 41.5625 33.5 44.5625 C29.2045231 48.97729571 25.21235206 49.71604121 19.25 49.9375 C11.87986722 49.86871209 8.00177518 46.73795668 2.625 42.0625 C-2.25941534 36.31612901 -1.64323454 30.91048228 -1.15820312 23.80078125 C-1.01756671 19.72593123 -1.14585254 18.05738143 -3.59375 14.63671875 C-6.86253153 12.30375774 -9.25269941 11.57940558 -13.1875 10.875 C-19.31944444 9.74305556 -19.31944444 9.74305556 -21.5 7.5625 C-21.87130746 4.66630178 -21.96583421 3.18361229 -20.1875 0.8125 C-14.75959352 -3.20817147 -5.98924998 -2.37840252 0 0 Z " fill="#FBFCFF" transform="translate(284.5,229.4375)"/>
<path d="M0 0 C0.625 2.875 0.625 2.875 1 6 C-1 8 -1 8 -4 8.3125 C-4.99 8.209375 -5.98 8.10625 -7 8 C-9 5 -9 5 -8.75 2.375 C-8.5025 1.59125 -8.255 0.8075 -8 0 C-5.13822943 -1.43088528 -3.06624227 -0.59991697 0 0 Z " fill="#F4F6FF" transform="translate(274,248)"/>
</svg>
