<svg xmlns="http://www.w3.org/2000/svg" viewBox="0 0 87.3 78" fill="none">
  <path d="M6.6 66.85l3.85 6.65c.8 1.4 1.95 2.5 3.3 3.3l13.75-23.8H1.05c0 1.6.4 3.2 1.2 4.6l4.35 9.25z" fill="#0066DA"/>
  <path d="M43.65 25.15L29.9 1.35c-1.35.8-2.5 1.9-3.3 3.3L1.2 48.4c-.8 1.4-1.2 3-1.2 4.6h27.45l16.2-27.85z" fill="#00AC47"/>
  <path d="M73.55 76.8c1.35-.8 2.5-1.9 3.3-3.3l1.6-2.75 7.65-13.25c.8-1.4 1.2-3 1.2-4.6H59.85l6.1 10.8 7.6 13.1z" fill="#EA4335"/>
  <path d="M43.65 25.15L57.4 1.35C56.05.55 54.5 0 52.8 0H34.5c-1.7 0-3.25.55-4.6 1.35l13.75 23.8z" fill="#00832D"/>
  <path d="M59.85 53H27.45l-13.75 23.8c1.35.8 2.9 1.2 4.6 1.2h50.7c1.7 0 3.25-.4 4.6-1.2L59.85 53z" fill="#2684FC"/>
  <path d="M73.4 26.5l-12.7-22c-.8-1.4-1.95-2.5-3.3-3.3L43.65 25.15 59.85 53h27.45c0-1.6-.4-3.2-1.2-4.6L73.4 26.5z" fill="#FFBA00"/>
</svg>
