<svg xmlns="http://www.w3.org/2000/svg" viewBox="0 0 100 100" fill="none">
  <path d="M6.017 4.313l55.333-4.087c6.797-.583 8.543-.19 12.817 2.917l17.663 12.443c2.913 2.14 3.883 2.723 3.883 5.053v68.243c0 4.277-1.553 6.807-6.99 7.193L24.467 99.967c-4.08.193-6.023-.39-8.16-3.113L3.3 79.94c-2.333-3.113-3.3-5.443-3.3-8.167V11.113c0-3.497 1.553-6.413 6.017-6.8z" fill="#fff"/>
  <path fill-rule="evenodd" clip-rule="evenodd" d="M61.35.227l-55.333 4.087C1.553 4.7 0 7.617 0 11.113v60.66c0 2.723.967 5.053 3.3 8.167l12.993 16.913c2.137 2.723 4.08 3.307 8.16 3.113l64.257-3.89c5.433-.387 6.99-2.917 6.99-7.193V20.64c0-2.21-.873-2.847-3.443-4.733L74.167 3.143C69.893.027 68.147-.357 61.35.227zM25.663 19.18c-5.247.353-6.437.433-9.417-1.99L8.927 11.2c-.77-.78-.383-1.75 1.557-1.947l51.97-3.723c4.473-.39 6.793 1.167 8.54 2.527l9.123 6.61c.39.197 1.36 1.36.193 1.36l-53.843 3.057-.803.097zm-5.82 76.203V30.653c0-2.53.777-3.697 3.103-3.893L86.05 23.7c2.14-.193 3.107 1.167 3.107 3.693v64.34c0 2.53-1.36 4.087-3.883 4.28L28.18 99.28c-2.53.193-3.883-.58-3.883-3.5l-.253-.397zm54.413-63.177c.39 1.557 0 3.113-1.553 3.307l-2.727.58v47.687c-2.333 1.167-4.47 1.75-6.22 1.75-2.917 0-3.69-.973-5.833-3.5l-17.86-28.023v27.247l5.637 1.163s0 3.11-4.277 3.11l-11.8.583c-.39-.78 0-2.723 1.357-3.11l3.497-.973V39.683l-4.86-.393c-.39-1.557.583-3.89 3.303-4.083l12.8-.78 18.433 28.217V36.963l-4.667-.583c-.39-1.947 1.167-3.307 2.917-3.5l12.853-.693z" fill="#000"/>
</svg>
