<?xml version="1.0" encoding="UTF-8"?>
<svg version="1.1" xmlns="http://www.w3.org/2000/svg" width="512" height="512">
<path d="M0 0 C1.86215502 -0.00551503 1.86215502 -0.00551503 3.76192933 -0.01114148 C7.19639655 -0.02023361 10.63081613 -0.02487038 14.06529081 -0.02753079 C17.77452222 -0.03144857 21.48373999 -0.04102602 25.19296265 -0.04974365 C34.14683661 -0.06946959 43.10071163 -0.07957068 52.05460188 -0.08847144 C56.27937595 -0.09286187 60.50414879 -0.09822682 64.72892189 -0.10346031 C78.78823556 -0.12047093 92.84754847 -0.13496174 106.90687084 -0.14220905 C110.55211577 -0.14411871 114.19736069 -0.14603908 117.84260559 -0.147995 C119.20149069 -0.14872061 119.20149069 -0.14872061 120.58782802 -0.14946087 C135.23999292 -0.15774862 149.89207586 -0.18306502 164.54420503 -0.21557567 C179.61437021 -0.24873895 194.68449388 -0.26666627 209.75469571 -0.26985329 C218.20493582 -0.27201015 226.6550565 -0.28063685 235.10526085 -0.30631447 C242.30700643 -0.32814875 249.50860356 -0.33601006 256.71037849 -0.32634769 C260.37672838 -0.32183908 264.04277285 -0.32348487 267.70907974 -0.34310913 C300.49298921 -0.50867035 330.37593769 4.86942589 355.67585754 27.14717102 C356.90175598 28.1758429 356.90175598 28.1758429 358.15242004 29.22529602 C379.65461021 47.73182502 393.09657038 74.10093735 396.67585754 102.14717102 C396.93569901 106.46752341 396.95084002 110.77223483 396.93655396 115.09950256 C396.9403795 116.34803363 396.94420505 117.5965647 396.94814652 118.88293004 C396.95662076 122.31388401 396.95626559 125.74462135 396.95196593 129.17556858 C396.94948384 132.88941104 396.95853121 136.60322906 396.96600342 140.31706238 C396.978712 147.5799421 396.98054888 154.84278479 396.97820316 162.10567376 C396.97641534 168.0139119 396.97817955 173.92213886 396.9824276 179.83037567 C396.98302279 180.67339077 396.98361798 181.51640586 396.9842312 182.38496687 C396.98544304 184.09793876 396.98665717 185.81091065 396.98787358 187.52388254 C396.99873455 203.56615386 396.99659361 219.60840414 396.99048873 235.65067664 C396.98532223 250.29874674 396.99657055 264.94675029 397.01558695 279.59480724 C397.03500027 294.66511606 397.04321515 309.73539345 397.0394637 324.80571485 C397.03755677 333.25460581 397.03998931 341.70344016 397.05417824 350.15232086 C397.06613773 357.34599843 397.06744612 364.53958454 397.05538807 371.73326346 C397.04953093 375.39707056 397.04831116 379.06071076 397.06039047 382.72450638 C397.11325418 399.92197232 397.06924815 416.38548936 390.98835754 432.70967102 C390.73417053 433.40600647 390.47998352 434.10234192 390.21809387 434.81977844 C385.55407476 447.14501782 379.03839717 457.95667523 370.67585754 468.14717102 C369.97847473 468.99795227 369.28109192 469.84873352 368.56257629 470.72529602 C349.81368003 492.52474397 322.45941749 507.36781328 293.67585754 510.14717102 C289.56786896 510.29759776 285.46212546 510.29499724 281.35171509 510.29434204 C279.48956007 510.29985707 279.48956007 510.29985707 277.58978575 510.30548352 C274.15531854 510.31457566 270.72089896 510.31921242 267.28642428 510.32187283 C263.57719287 510.32579061 259.86797509 510.33536806 256.15875244 510.34408569 C247.20487848 510.36381163 238.25100346 510.37391272 229.29711321 510.38281348 C225.07233913 510.38720391 220.8475663 510.39256886 216.6227932 510.39780235 C202.56347953 510.41481298 188.50416662 510.42930379 174.44484425 510.43655109 C170.79959932 510.43846075 167.1543544 510.44038112 163.5091095 510.44233704 C162.1502244 510.44306265 162.1502244 510.44306265 160.76388707 510.44380292 C146.11172216 510.45209067 131.45963923 510.47740706 116.80751006 510.50991771 C101.73734488 510.54308099 86.66722121 510.56100831 71.59701937 510.56419533 C63.14677926 510.56635219 54.69665859 510.57497889 46.24645424 510.60065651 C39.04470866 510.62249079 31.84311152 510.6303521 24.6413366 510.62068973 C20.97498671 510.61618112 17.30894224 510.61782691 13.64263535 510.63745117 C-19.14127412 510.80301239 -49.0242226 505.42491615 -74.32414246 483.14717102 C-75.55004089 482.11849915 -75.55004089 482.11849915 -76.80070496 481.06904602 C-98.30289513 462.56251702 -111.74485529 436.19340469 -115.32414246 408.14717102 C-115.58398392 403.82681863 -115.59912493 399.52210721 -115.58483887 395.19483948 C-115.58866441 393.94630841 -115.59248996 392.69777734 -115.59643143 391.411412 C-115.60490567 387.98045803 -115.6045505 384.54972069 -115.60025084 381.11877346 C-115.59776875 377.40493101 -115.60681612 373.69111298 -115.61428833 369.97727966 C-115.62699691 362.71439994 -115.62883379 355.45155725 -115.62648807 348.18866828 C-115.62470025 342.28043014 -115.62646446 336.37220318 -115.63071251 330.46396637 C-115.6313077 329.62095128 -115.63190289 328.77793618 -115.63251611 327.90937518 C-115.63372795 326.19640328 -115.63494209 324.48343139 -115.63615849 322.7704595 C-115.64701947 306.72818818 -115.64487852 290.6859379 -115.63877364 274.6436654 C-115.63360714 259.9955953 -115.64485546 245.34759175 -115.66387186 230.6995348 C-115.68328518 215.62922598 -115.69150006 200.55894859 -115.68774861 185.4886272 C-115.68584169 177.03973623 -115.68827422 168.59090188 -115.70246315 160.14202118 C-115.71442264 152.94834362 -115.71573103 145.75475751 -115.70367298 138.56107858 C-115.69781584 134.89727149 -115.69659607 131.23363128 -115.70867538 127.56983566 C-115.76153909 110.37236972 -115.71753306 93.90885268 -109.63664246 77.58467102 C-109.25536194 76.54016785 -109.25536194 76.54016785 -108.86637878 75.4745636 C-104.20235967 63.14932422 -97.68668208 52.33766681 -89.32414246 42.14717102 C-88.62675964 41.29638977 -87.92937683 40.44560852 -87.21086121 39.56904602 C-65.25839172 14.04478534 -33.50384735 -0.00534054 0 0 Z " fill="#1F1F1F" transform="translate(115.32414245605469,0.8528289794921875)"/>
<path d="M0 0 C6.74591549 4.497277 6.74591549 4.497277 9.3671875 6.98828125 C9.93848389 7.52606201 10.50978027 8.06384277 11.09838867 8.61791992 C11.68467041 9.17713135 12.27095215 9.73634277 12.875 10.3125 C14.11770238 11.48260743 15.36118553 12.65188625 16.60546875 13.8203125 C17.19505371 14.37493164 17.78463867 14.92955078 18.39208984 15.50097656 C20.87779798 17.81835403 23.43929952 20.04183663 26.01171875 22.26171875 C28.54052928 24.47256489 31.01872564 26.73596443 33.5 29 C37.28662998 32.45328153 41.1047632 35.86099051 44.97265625 39.22265625 C47.33489173 41.29359487 49.66795853 43.39512848 52 45.5 C54.98062721 48.18983431 57.97245233 50.86310364 61 53.5 C66.58979989 58.37143203 72.07534898 63.3589515 77.578125 68.328125 C82.18811441 72.48560011 86.81861508 76.61497327 91.50390625 80.6875 C92.35652941 81.43549316 93.19798378 82.19798378 94 83 C94.33 55.94 94.66 28.88 95 1 C100.61 1 106.22 1 112 1 C112.33 28.39 112.66 55.78 113 84 C116.63 80.7 120.26 77.4 124 74 C126.65508326 71.81903875 129.31065533 69.63854248 131.984375 67.48046875 C135.54670222 64.55031618 139.02470796 61.53237122 142.5 58.5 C147.6321192 54.02447884 152.83186004 49.65992282 158.125 45.375 C161.63547639 42.47504125 165.06832727 39.49241862 168.5 36.5 C173.6308997 32.02585546 178.82861859 27.66178853 184.12109375 23.37890625 C187.65526651 20.45853826 191.10841354 17.4517644 194.5625 14.4375 C211.12655094 0 211.12655094 0 213 0 C213 31.35 213 62.7 213 95 C223.56 95 234.12 95 245 95 C245 142.19 245 189.38 245 238 C232.13 238 219.26 238 206 238 C206 267.37 206 296.74 206 327 C197.06569343 320.29927007 197.06569343 320.29927007 194 317.0625 C191.55649943 314.55308612 189.09632644 312.15481446 186.4375 309.875 C182.39645604 306.3998616 178.51202763 302.77002059 174.625 299.125 C169.63650685 294.44924394 164.6130108 289.82289045 159.515625 285.265625 C155.96654367 282.06924741 152.46261242 278.82493938 148.95654297 275.58154297 C144.33622603 271.30758068 139.697886 267.05376835 135.0546875 262.8046875 C132.88626991 260.817325 130.72620129 258.82125813 128.5703125 256.8203125 C127.70792969 256.02077148 127.70792969 256.02077148 126.828125 255.20507812 C125.73058035 254.18682856 124.63413943 253.16738738 123.5390625 252.14648438 C122.78109375 251.44362305 122.78109375 251.44362305 122.0078125 250.7265625 C121.57098145 250.32002441 121.13415039 249.91348633 120.68408203 249.49462891 C118.1757759 247.26849812 115.57637846 245.14698205 113 243 C112.67 270.06 112.34 297.12 112 325 C106.39 325 100.78 325 95 325 C94.67 297.94 94.34 270.88 94 243 C89.45932445 246.97309111 84.94582834 250.92912104 80.5 255 C76.71065874 258.45575413 72.88916302 261.8652289 69.01953125 265.23046875 C64.97334911 268.77576954 60.99256813 272.39458999 57 276 C51.71740942 280.77033937 46.42065865 285.51894407 41.0546875 290.1953125 C37.00030997 293.75638173 33.0048707 297.3834804 29 301 C23.72765526 305.76108707 18.44795467 310.50849554 13.08203125 315.1640625 C11.50127804 316.55797246 9.93944036 317.97336863 8.38671875 319.3984375 C7.05060547 320.62433594 7.05060547 320.62433594 5.6875 321.875 C4.45580078 323.01582031 4.45580078 323.01582031 3.19921875 324.1796875 C1 326 1 326 -2 327 C-2 297.63 -2 268.26 -2 238 C-14.21 238 -26.42 238 -39 238 C-39 190.81 -39 143.62 -39 95 C-26.13 95 -13.26 95 0 95 C0 63.65 0 32.3 0 0 Z " fill="#FCFCFC" transform="translate(153,93)"/>
<path d="M0 0 C0.33 0 0.66 0 1 0 C1.32555956 12.16113126 1.5737179 24.321213 1.72537041 36.48582745 C1.79819068 42.13576219 1.89680234 47.78269902 2.05615234 53.4309082 C2.20920717 58.8906691 2.29216413 64.34756341 2.3282814 69.80930519 C2.35398809 71.8839613 2.40419413 73.9584746 2.48022079 76.03189659 C3.08049551 93.09428765 3.08049551 93.09428765 -2.06048584 99.12442017 C-4.94300392 102.00433824 -8.04079841 104.48490219 -11.36596298 106.83327675 C-13.46163522 108.32961343 -15.35202814 110.01275615 -17.25 111.75 C-17.85328125 112.27078125 -18.4565625 112.7915625 -19.078125 113.328125 C-21.41105074 115.35758073 -23.70511245 117.427647 -26 119.5 C-28.95869751 122.17048344 -31.92926472 124.82298058 -34.9375 127.4375 C-38.16559512 130.24822525 -41.33738443 133.115799 -44.5 136 C-48.28798568 139.45451789 -52.10780094 142.86310857 -55.9765625 146.2265625 C-58.31555215 148.27656501 -60.62747296 150.35492177 -62.9375 152.4375 C-63.77152344 153.18773437 -64.60554687 153.93796875 -65.46484375 154.7109375 C-67.17106046 156.25152762 -68.87149715 157.79854077 -70.56640625 159.3515625 C-71.77103516 160.44597656 -71.77103516 160.44597656 -73 161.5625 C-73.721875 162.22378906 -74.44375 162.88507813 -75.1875 163.56640625 C-77 165 -77 165 -79 165 C-79.65665245 154.01346208 -80.14997986 143.03176259 -80.45074081 132.02941513 C-80.59533612 126.91576048 -80.79010889 121.81574842 -81.11230469 116.70996094 C-83.33408773 80.5571006 -83.33408773 80.5571006 -72.92382812 68.13867188 C-66.82131492 61.36106102 -59.82133901 55.62972446 -52.54093933 50.17250061 C-46.55665555 45.61905958 -41.20774296 40.34439062 -35.9375 35 C-35.30191162 34.360625 -34.66632324 33.72125 -34.01147461 33.0625 C-32.0051635 31.04411603 -30.00215999 29.02250124 -28 27 C-12.3171286 11.15779609 -12.3171286 11.15779609 -6.50952148 6.29077148 C-4.94310958 4.95135377 -3.50320051 3.53547946 -2.0625 2.0625 C-1.381875 1.381875 -0.70125 0.70125 0 0 Z " fill="#212121" transform="translate(247,217)"/>
<path d="M0 0 C0.42154389 0.36687487 0.84308779 0.73374973 1.27740574 1.11174202 C4.89020736 4.23511628 8.55680589 7.26222086 12.31329918 10.21066856 C22.69720436 18.37651815 32.67281397 26.98014785 42.4375 35.875 C43.25917915 36.62273933 44.08085831 37.37047867 44.92743683 38.14087677 C65.63296969 57.19238815 80.28161569 74.32936848 81.77924156 103.27542496 C82.45379436 123.54869018 80.28037652 144.01446282 77 164 C74.02183282 162.57567584 72.02068318 161.22096735 69.75 158.8125 C67.41185441 156.40558542 65.04842283 154.12027956 62.5 151.9375 C58.48638698 148.47614768 54.61697027 144.87301115 50.75 141.25 C44.20718706 135.12112508 37.61859526 129.04694871 31 123 C29.5013126 121.62731063 28.00324495 120.25394812 26.50537109 118.88037109 C25.5072141 117.96509707 24.508844 117.05005539 23.51025391 116.13525391 C20.94498593 113.78508865 18.3824772 111.43201373 15.82421875 109.07421875 C15.29892578 108.59082031 14.77363281 108.10742188 14.23242188 107.609375 C12.78313625 106.2755192 11.33489058 104.94053371 9.88671875 103.60546875 C7.26412683 101.12650955 7.26412683 101.12650955 5.21478176 99.76359367 C2.4996917 97.79396598 0.37572911 96.2206127 -0.63441277 92.93901443 C-0.86059465 90.46622763 -0.86675074 88.08033715 -0.79467773 85.59814453 C-0.79569992 84.67067917 -0.79672211 83.74321381 -0.79777527 82.78764343 C-0.79291456 79.73484968 -0.73854542 76.68508086 -0.68359375 73.6328125 C-0.67053216 71.51148106 -0.66057064 69.39012845 -0.65357971 67.26876831 C-0.62689865 61.69512258 -0.55817436 56.12276113 -0.48065186 50.54962158 C-0.40894454 44.85877862 -0.37705212 39.16772738 -0.34179688 33.4765625 C-0.26680468 22.31714518 -0.14738888 11.15867953 0 0 Z " fill="#202020" transform="translate(265,217)"/>
<path d="M0 0 C33.99 0 67.98 0 103 0 C103 35.97 103 71.94 103 109 C95.74 109 88.48 109 81 109 C81.13197281 107.2130925 81.26394562 105.426185 81.3999176 103.58512878 C81.86157077 92.27875167 82.18310954 82.03059287 74.77758694 72.8982439 C70.83410956 68.65484373 66.67044873 64.71390816 62.40234375 60.80078125 C60.60420389 59.05568511 58.81210436 57.30434576 57.02577209 55.54716492 C52.35652579 50.9855748 47.61257983 46.51061336 42.84637451 42.05072021 C37.97936991 37.46924709 33.18705325 32.81132124 28.38867188 28.15820312 C23.00517231 22.94589983 17.61430411 17.74291651 12.1716156 12.59236145 C11.35186249 11.81660767 10.53210938 11.04085388 9.68751526 10.24159241 C8.14924781 8.78871297 6.60877733 7.33816143 5.0657959 5.89028931 C4.39410873 5.2562468 3.72242157 4.62220428 3.03038025 3.96894836 C2.44173156 3.41628957 1.85308287 2.86363077 1.24659634 2.29422474 C0 1 0 1 0 0 Z " fill="#1F1F1F" transform="translate(278,205)"/>
<path d="M0 0 C34.32 0 68.64 0 104 0 C100.06121429 4.59525 96.37365737 8.63912199 91.9375 12.625 C82.39275729 21.35086368 73.35228302 30.59461419 64.25561523 39.78173828 C58.99306843 45.08600822 53.76463575 50.31860357 48.06323242 55.1550293 C45.28185487 57.64217522 42.66235244 60.28237747 40.0390625 62.93359375 C39.51712814 63.46103683 38.99519379 63.98847992 38.45744324 64.53190613 C36.28947868 66.72763558 34.1253494 68.92706707 31.96533203 71.13061523 C30.36921101 72.75674919 28.76707677 74.37675895 27.1640625 75.99609375 C26.6745108 76.49910507 26.18495911 77.00211639 25.68057251 77.52037048 C24.49116463 78.71861993 23.24975604 79.86483363 22 81 C21.34 81 20.68 81 20 81 C20 90.24 20 99.48 20 109 C13.4 109 6.8 109 0 109 C0 73.03 0 37.06 0 0 Z " fill="#1F1F1F" transform="translate(131,205)"/>
<path d="M0 0 C0 19.14 0 38.28 0 58 C-22.77 58 -45.54 58 -69 58 C-61.70717355 50.70717355 -54.06532828 43.99981298 -46.05078125 37.515625 C-42.47943501 34.57075051 -38.98785513 31.54283024 -35.5 28.5 C-30.38023729 24.03533638 -25.19731157 19.67656363 -19.91015625 15.41015625 C-17.5928371 13.49098053 -15.31927451 11.54309494 -13.05859375 9.55859375 C-12.37667969 8.96046875 -11.69476563 8.36234375 -10.9921875 7.74609375 C-9.64067282 6.5564525 -8.29289611 5.36254879 -6.94921875 4.1640625 C-2.21868474 0 -2.21868474 0 0 0 Z " fill="#242424" transform="translate(349,130)"/>
<path d="M0 0 C5.62167523 3.37300514 5.62167523 3.37300514 8.26953125 5.890625 C8.84405029 6.43162842 9.41856934 6.97263184 10.01049805 7.5300293 C10.60515869 8.09761963 11.19981934 8.66520996 11.8125 9.25 C13.06431794 10.4292206 14.31691573 11.60761393 15.5703125 12.78515625 C16.16618164 13.34605957 16.76205078 13.90696289 17.37597656 14.48486328 C19.8664759 16.80838085 22.43349013 19.03682339 25.01171875 21.26171875 C27.54052928 23.47256489 30.01872564 25.73596443 32.5 28 C36.28662998 31.45328153 40.1047632 34.86099051 43.97265625 38.22265625 C47.18736302 41.04094446 50.35213762 43.91431636 53.5234375 46.78125 C56.51305965 49.45964965 59.54892436 52.08129511 62.6015625 54.6875 C63.06304687 55.120625 63.52453125 55.55375 64 56 C64 56.33 64 56.66 64 57 C42.88 57 21.76 57 0 57 C0 38.19 0 19.38 0 0 Z " fill="#232323" transform="translate(170,131)"/>
</svg>
