<?xml version="1.0" encoding="UTF-8"?>
<svg version="1.1" xmlns="http://www.w3.org/2000/svg" width="512" height="512">
<path d="M0 0 C0.92003815 0.00182281 1.84007629 0.00364563 2.78799438 0.00552368 C16.83701608 0.05228521 30.48474475 0.65761356 44.3125 3.3125 C45.19647461 3.4681543 46.08044922 3.62380859 46.99121094 3.78417969 C87.14779068 10.92597821 125.31801842 28.05118544 157.3125 53.3125 C158.13492187 53.94285156 158.95734375 54.57320312 159.8046875 55.22265625 C167.02226595 60.83760946 173.69874413 67.00828976 180.3125 73.3125 C180.80959473 73.78623047 181.30668945 74.25996094 181.81884766 74.74804688 C188.53920116 81.19922433 194.57385142 87.98145156 200.3125 95.3125 C201.10269531 96.29734375 201.89289063 97.2821875 202.70703125 98.296875 C228.01217542 130.11020318 244.47210813 167.97566255 252.625 207.6875 C252.84591309 208.75303101 252.84591309 208.75303101 253.07128906 209.84008789 C255.99413834 225.14397612 256.68924886 240.46110545 256.625 256 C256.62226578 257.38005722 256.62226578 257.38005722 256.61947632 258.78799438 C256.57271479 272.83701608 255.96738644 286.48474475 253.3125 300.3125 C253.07901855 301.63846191 253.07901855 301.63846191 252.84082031 302.99121094 C245.71554902 343.0548621 228.64050785 381.45570037 203.3125 413.3125 C202.59707031 414.22 201.88164062 415.1275 201.14453125 416.0625 C189.29971614 430.82134927 176.22667221 444.63788159 161.3125 456.3125 C160.32765625 457.10269531 159.3428125 457.89289063 158.328125 458.70703125 C126.51479682 484.01217542 88.64933745 500.47210813 48.9375 508.625 C48.227146 508.77227539 47.51679199 508.91955078 46.78491211 509.07128906 C31.67189561 511.95768425 16.53368029 512.69034022 1.1875 512.625 C-0.15462555 512.62226578 -0.15462555 512.62226578 -1.52386475 512.61947632 C-15.76788712 512.57079426 -29.64967009 511.89161529 -43.6875 509.3125 C-45.03908203 509.07901855 -45.03908203 509.07901855 -46.41796875 508.84082031 C-72.92291495 504.15852904 -97.91324967 494.77197668 -121.6875 482.3125 C-122.72898193 481.77592773 -122.72898193 481.77592773 -123.79150391 481.22851562 C-140.06142124 472.77416069 -155.04124025 461.49733833 -168.6875 449.3125 C-169.54214844 448.56742187 -170.39679688 447.82234375 -171.27734375 447.0546875 C-181.65949139 437.90265214 -191.16880677 428.23273973 -199.6875 417.3125 C-200.47640625 416.32894531 -201.2653125 415.34539062 -202.078125 414.33203125 C-227.38797055 382.52181547 -243.8471632 344.64906918 -252 304.9375 C-252.14727539 304.227146 -252.29455078 303.51679199 -252.44628906 302.78491211 C-255.36913834 287.48102388 -256.06424886 272.16389455 -256 256.625 C-255.99726578 255.24494278 -255.99726578 255.24494278 -255.99447632 253.83700562 C-255.94771479 239.78798392 -255.34238644 226.14025525 -252.6875 212.3125 C-252.5318457 211.42852539 -252.37619141 210.54455078 -252.21582031 209.63378906 C-246.23420942 176.00065955 -233.18696168 142.4614972 -213.6875 114.3125 C-213.2754834 113.70954102 -212.8634668 113.10658203 -212.43896484 112.48535156 C-198.0626991 91.53124007 -180.72299085 71.99601947 -160.6875 56.3125 C-159.70265625 55.52230469 -158.7178125 54.73210938 -157.703125 53.91796875 C-125.88979682 28.61282458 -88.02433745 12.15289187 -48.3125 4 C-47.602146 3.85272461 -46.89179199 3.70544922 -46.15991211 3.55371094 C-30.85602388 0.63086166 -15.53889455 -0.06424886 0 0 Z " fill="#25A4E3" transform="translate(255.6875,-0.3125)"/>
<path d="M0 0 C4.89096988 -0.35536684 7.66816656 0.7659516 11.59765625 3.64453125 C15.59714635 8.0223515 15.3253361 13.18343001 15.22119141 18.76660156 C14.88708566 25.25282992 14.08240208 31.66776267 13.23046875 38.1015625 C13.12648773 38.90145599 13.02250671 39.70134949 12.91537476 40.52548218 C7.55197284 81.5415558 0.64875507 122.39660802 -6.33203125 163.1640625 C-6.53081879 164.33256744 -6.72960632 165.50107239 -6.93441772 166.70498657 C-8.93339525 178.41863874 -11.04663362 190.10176578 -13.49609375 201.73046875 C-13.68319916 202.64360336 -13.87030457 203.55673798 -14.06307983 204.49754333 C-16.09387572 213.85860359 -18.79374309 222.5340047 -25.95703125 229.2265625 C-30.82456601 231.66032988 -37.63398225 231.02907825 -42.95703125 230.2265625 C-47.71365414 228.54215839 -51.79325538 226.03460824 -55.95703125 223.2265625 C-56.57690918 222.8140625 -57.19678711 222.4015625 -57.83544922 221.9765625 C-61.0694115 219.81253696 -64.27195778 217.60960349 -67.44921875 215.36328125 C-73.11846455 211.38200529 -78.90642314 207.57645288 -84.67578125 203.74264526 C-91.76246308 199.03294831 -98.84215778 194.31301895 -105.91088867 189.57641602 C-107.82366424 188.2968216 -109.7383963 187.0201472 -111.6550293 185.74633789 C-140.40186007 166.63313077 -140.40186007 166.63313077 -142.5390625 159.203125 C-143.07608406 153.72368469 -141.91522567 150.59539955 -138.42382812 146.28515625 C-136.01413478 143.51930317 -133.51478918 140.85539364 -130.95703125 138.2265625 C-129.85294922 137.05867188 -129.85294922 137.05867188 -128.7265625 135.8671875 C-124.9924401 132.02126502 -121.02015189 128.4995568 -116.95703125 125.0078125 C-114.16817592 122.52398822 -111.58016142 119.85944813 -108.9609375 117.19921875 C-106.37456974 114.65318421 -103.64167845 112.30634693 -100.890625 109.94140625 C-98.41804808 107.7485552 -96.1238515 105.40663608 -93.81103516 103.04785156 C-92.11946595 101.38613095 -90.38288929 99.85895337 -88.5703125 98.33203125 C-82.92608948 93.42338968 -77.68683876 88.10590045 -72.40991211 82.80981445 C-70.63443421 81.02893474 -68.85361881 79.25351644 -67.07226562 77.47851562 C-65.93327264 76.3388625 -64.79458954 75.19889957 -63.65625 74.05859375 C-63.12811203 73.53248001 -62.59997406 73.00636627 -62.05583191 72.46430969 C-56.91135341 67.73226726 -56.91135341 67.73226726 -54.76953125 61.4765625 C-54.83140625 60.7340625 -54.89328125 59.9915625 -54.95703125 59.2265625 C-61.18886182 58.40423828 -64.67841995 61.10044273 -69.64453125 64.4140625 C-70.5660498 65.01428223 -71.48756836 65.61450195 -72.43701172 66.23291016 C-75.95864375 68.54224035 -79.45987169 70.88040648 -82.95703125 73.2265625 C-83.70152527 73.72573181 -84.44601929 74.22490112 -85.21307373 74.73919678 C-95.09781694 81.37067608 -104.96172242 88.03285149 -114.8203125 94.703125 C-125.11177476 101.6651504 -135.43167814 108.58364975 -145.76953125 115.4765625 C-146.86010834 116.20477203 -146.86010834 116.20477203 -147.97271729 116.94769287 C-152.6254156 120.05396528 -157.28541754 123.1488049 -161.95703125 126.2265625 C-162.60416077 126.65323212 -163.25129028 127.07990173 -163.91802979 127.51950073 C-165.8117252 128.7644241 -167.70965984 130.00256803 -169.609375 131.23828125 C-170.69597412 131.94686279 -171.78257324 132.65544434 -172.90209961 133.38549805 C-185.7412897 141.12307756 -199.92234819 140.89462648 -214.10644531 137.52832031 C-223.87672173 134.99454188 -233.46389519 131.8415455 -243.01953125 128.6015625 C-244.11974609 128.22974854 -245.21996094 127.85793457 -246.35351562 127.47485352 C-252.76651145 125.22761128 -258.09132188 123.09227187 -262.95703125 118.2265625 C-263.51072007 115.25048511 -263.5409684 113.19917661 -261.95166016 110.55200195 C-257.67842085 105.2999467 -252.96322505 102.8040276 -246.83203125 100.1015625 C-245.89133789 99.67125732 -244.95064453 99.24095215 -243.98144531 98.79760742 C-237.36785962 95.79158776 -230.70395752 92.92006882 -223.95703125 90.2265625 C-221.1833825 89.10841978 -218.41300032 87.98246703 -215.64453125 86.8515625 C-214.91991699 86.55556152 -214.19530273 86.25956055 -213.44873047 85.95458984 C-208.04419983 83.72508545 -202.75746407 81.29702836 -197.48120117 78.78173828 C-192.59162563 76.47124395 -187.61895622 74.45848667 -182.58154297 72.49584961 C-178.12026719 70.73934574 -173.78375826 68.79072017 -169.45703125 66.7265625 C-163.8171389 64.03647256 -158.11376657 61.63160898 -152.29638672 59.35327148 C-147.77179608 57.57486423 -143.36491661 55.6168307 -138.95703125 53.5703125 C-135.20019612 51.88756343 -131.39518506 50.33895756 -127.58203125 48.7890625 C-122.49685874 46.72145264 -117.48174235 44.5790646 -112.51953125 42.2265625 C-106.60749678 39.44486498 -100.57485418 37.09379604 -94.47558594 34.76391602 C-89.45277432 32.83629722 -84.55966363 30.73302157 -79.68359375 28.45703125 C-75.9254183 26.76100651 -72.10097181 25.24785157 -68.265625 23.73583984 C-64.4314124 22.22208512 -60.61373935 20.67543797 -56.80859375 19.08984375 C-45.34081767 14.31927344 -33.81392613 9.95262887 -22.05566406 5.95361328 C-19.2307353 4.97494438 -16.43895325 3.91374743 -13.64453125 2.8515625 C-9.08377028 1.18922906 -4.80363567 0.55610952 0 0 Z " fill="#FEFEFE" transform="translate(359.95703125,153.7734375)"/>
</svg>
