<svg xmlns="http://www.w3.org/2000/svg" viewBox="0 0 175.216 175.552">
  <defs>
    <linearGradient id="a" x1="85.915" x2="86.535" y1="32.567" y2="137.092" gradientUnits="userSpaceOnUse">
      <stop offset="0" stop-color="#57d163"/>
      <stop offset="1" stop-color="#23b33a"/>
    </linearGradient>
  </defs>
  <path fill="#e5e5e5" d="M87.184 0C38.998 0 0 38.998 0 87.184c0 16.433 4.559 31.77 12.468 44.884L0 175.552l45.044-11.8A86.9 86.9 0 0 0 87.184 174.368c48.186 0 87.184-38.998 87.184-87.184S135.37 0 87.184 0Z"/>
  <path fill="url(#a)" d="M87.184 14.3c-40.166 0-72.884 32.718-72.884 72.884 0 13.623 3.752 26.345 10.282 37.248l-6.73 24.583 25.267-6.532a72.6 72.6 0 0 0 34.065 8.485c40.166 0 72.884-32.718 72.884-72.884S127.35 14.3 87.184 14.3Z"/>
  <path fill="#fff" fill-rule="evenodd" d="M65.773 52.346c-1.637-3.637-3.363-3.712-4.922-3.775-1.275-.053-2.735-.05-4.193-.05-1.46 0-3.832.548-5.837 2.735s-7.654 7.48-7.654 18.236 7.837 21.154 8.929 22.616c1.094 1.46 15.118 24.18 37.327 32.918 18.453 7.268 22.213 5.82 26.224 5.46 4.01-.365 12.934-5.287 14.76-10.39 1.822-5.103 1.822-9.475 1.277-10.39-.548-.913-2.007-1.46-4.193-2.554-2.189-1.094-12.934-6.385-14.942-7.115-2.007-.73-3.466-1.094-4.925 1.094-1.46 2.189-5.654 7.115-6.93 8.576-1.276 1.46-2.554 1.643-4.74.548-2.189-1.094-9.237-3.404-17.597-10.858-6.506-5.8-10.898-12.962-12.175-15.15-1.276-2.189-.136-3.372 .96-4.463 .987-.978 2.189-2.553 3.284-3.832 1.094-1.276 1.458-2.189 2.189-3.648.73-1.46.364-2.736-.183-3.831-.548-1.094-4.818-11.748-6.66-16.067Z" clip-rule="evenodd"/>
</svg>
