<?xml version="1.0" encoding="UTF-8"?>
<svg version="1.1" xmlns="http://www.w3.org/2000/svg" width="512" height="512">
<path d="M0 0 C1.2457088 -0.00453111 2.49141761 -0.00906223 3.77487516 -0.01373065 C7.19810264 -0.02412775 10.62111839 -0.02571313 14.04434633 -0.02334189 C17.75008904 -0.02293095 21.45580131 -0.03399931 25.16152954 -0.04345703 C32.40970505 -0.06000949 39.65784801 -0.065564 46.90604085 -0.06668179 C52.80471041 -0.0676352 58.70336933 -0.07176006 64.60203552 -0.07808304 C81.36311358 -0.09568135 98.12416612 -0.10492436 114.88525349 -0.10342209 C116.2382255 -0.10330222 116.2382255 -0.10330222 117.61853027 -0.10317993 C118.97317411 -0.10305729 118.97317411 -0.10305729 120.3551845 -0.10293217 C134.97470402 -0.10212013 149.5941203 -0.1212408 164.21360999 -0.14945666 C179.26133892 -0.17826742 194.30901764 -0.1919924 209.35677481 -0.19026911 C217.79016579 -0.18960793 226.2234486 -0.19497982 234.65681458 -0.21662521 C241.84014828 -0.23494543 249.0233248 -0.23909645 256.20667189 -0.22560637 C259.86292414 -0.21913025 263.51887582 -0.21876183 267.17509842 -0.23631287 C305.38765122 -0.40803185 335.95736782 7.98537326 364.07458496 35.26742554 C384.01388157 55.13913131 396.18287796 83.57622959 396.35139596 111.73213243 C396.34829876 112.87416612 396.34520156 114.01619981 396.3420105 115.19284058 C396.34654161 116.43854938 396.35107272 117.68425818 396.35574114 118.96771574 C396.36613825 122.39094322 396.36772363 125.81395896 396.36535239 129.23718691 C396.36494144 132.94292962 396.37600981 136.64864189 396.38546753 140.35437012 C396.40201999 147.60254562 396.4075745 154.85068859 396.40869229 162.09888142 C396.40964569 167.99755099 396.41377056 173.89620991 396.42009354 179.7948761 C396.43769185 196.55595416 396.44693486 213.3170067 396.44543259 230.07809407 C396.44531272 231.43106607 396.44531272 231.43106607 396.44519043 232.81137085 C396.44510867 233.71446674 396.44502691 234.61756264 396.44494267 235.54802507 C396.44413063 250.1675446 396.4632513 264.78696088 396.49146716 279.40645057 C396.52027791 294.45417949 396.5340029 309.50185821 396.53227961 324.54961538 C396.53161843 332.98300637 396.53699032 341.41628918 396.55863571 349.84965515 C396.57695593 357.03298885 396.58110695 364.21616537 396.56761687 371.39951247 C396.56114075 375.05576472 396.56077233 378.7117164 396.57832336 382.367939 C396.67543463 403.97576457 395.37461904 423.5021559 386.07458496 443.26742554 C385.64170166 444.19265015 385.64170166 444.19265015 385.20007324 445.13656616 C372.77112278 471.24475631 349.81405379 493.05151597 322.5657959 503.20199585 C308.57051037 507.98305949 294.96898571 510.57504253 280.14916992 510.53485107 C278.90346112 510.53938219 277.65775231 510.5439133 276.37429476 510.54858172 C272.95106728 510.55897883 269.52805153 510.5605642 266.10482359 510.55819297 C262.39908088 510.55778202 258.69336861 510.56885039 254.98764038 510.57830811 C247.73946487 510.59486057 240.49132191 510.60041508 233.24312907 510.60153286 C227.34445951 510.60248627 221.44580059 510.60661113 215.5471344 510.61293411 C198.78605634 510.63053242 182.0250038 510.63977543 165.26391643 510.63827316 C163.91094442 510.6381533 163.91094442 510.6381533 162.53063965 510.63803101 C161.62754376 510.63794924 160.72444786 510.63786748 159.79398543 510.63778324 C145.1744659 510.6369712 130.55504962 510.65609188 115.93555993 510.68430774 C100.887831 510.71311849 85.84015229 510.72684348 70.79239511 510.72512019 C62.35900413 510.72445901 53.92572132 510.72983089 45.49235535 510.75147629 C38.30902164 510.7697965 31.12584512 510.77394753 23.94249803 510.76045744 C20.28624578 510.75398132 16.6302941 510.7536129 12.9740715 510.77116394 C-24.41797279 510.93921304 -55.75299377 502.7453296 -83.17541504 476.39242554 C-109.33860371 449.07497854 -116.41246258 417.65371064 -116.33224809 380.83340168 C-116.3274703 377.13044885 -116.34006662 373.42754567 -116.3502655 369.72460938 C-116.36737031 362.49033175 -116.3683108 355.25614129 -116.3630526 348.02184871 C-116.35899356 342.13471222 -116.36047493 336.24760129 -116.36580086 330.360466 C-116.36654928 329.51914776 -116.3672977 328.67782952 -116.3680688 327.81101678 C-116.36960045 326.10127395 -116.3711388 324.39153112 -116.37268377 322.6817883 C-116.38637908 306.68514972 -116.38099239 290.68856019 -116.36949856 274.69192275 C-116.35957242 260.09851917 -116.37250143 245.50524249 -116.39643275 230.91185847 C-116.42089159 215.88207728 -116.43041482 200.85235502 -116.42378002 185.82255435 C-116.42030243 177.40264364 -116.42242249 168.9828304 -116.44003105 160.56293488 C-116.45483839 153.39432884 -116.45527835 146.22588889 -116.43796014 139.05728582 C-116.42951668 135.40911293 -116.42713444 131.76123562 -116.44261169 128.11307907 C-116.52751293 106.5287807 -115.21523725 87.01099201 -105.92541504 67.26742554 C-105.63682617 66.65060913 -105.3482373 66.03379272 -105.05090332 65.39828491 C-92.62195286 39.29009476 -69.66488386 17.4833351 -42.41662598 7.33285522 C-28.42134045 2.55179158 -14.81981579 -0.04019145 0 0 Z " fill="#000000" transform="translate(115.9254150390625,0.732574462890625)"/>
<path d="M0 0 C9.52724323 -0.18567664 19.05386022 -0.32766383 28.58252048 -0.41449738 C33.00756977 -0.4561823 37.43137793 -0.5126824 41.85571289 -0.60351562 C46.12872876 -0.69068932 50.4005541 -0.73832449 54.67439079 -0.75901794 C56.3015816 -0.77375641 57.92870997 -0.80253993 59.55539131 -0.84584045 C72.27139013 -1.17074534 72.27139013 -1.17074534 76.48297119 1.68165588 C78.2777057 3.69764275 79.6510994 5.66819662 81 8 C81.6182666 8.78624756 82.2365332 9.57249512 82.87353516 10.38256836 C83.34065918 11.02846924 83.8077832 11.67437012 84.2890625 12.33984375 C84.83095215 13.08347168 85.3728418 13.82709961 85.93115234 14.59326172 C86.49012207 15.36686035 87.0490918 16.14045898 87.625 16.9375 C92.14621857 23.13261864 96.70409587 29.29182655 101.375 35.375 C102.14710815 36.38240234 102.14710815 36.38240234 102.93481445 37.41015625 C105.32641716 40.52744893 107.72272801 43.64103123 110.12451172 46.75048828 C112.35789407 49.64306065 114.58537021 52.54011208 116.8125 55.4375 C117.52519043 56.35644043 118.23788086 57.27538086 118.97216797 58.22216797 C119.62717285 59.07568848 120.28217773 59.92920898 120.95703125 60.80859375 C121.54460205 61.56970459 122.13217285 62.33081543 122.73754883 63.11499023 C124 65 124 65 124 67 C128.99023011 63.28931607 132.57522694 58.9411299 136.4453125 54.09375 C139.15184132 50.75804388 142.06133047 47.63086687 145 44.5 C148.64930192 40.60466487 152.1570235 36.66660839 155.5 32.5 C159.31372507 27.7466615 163.37520694 23.30094528 167.53881836 18.85791016 C171.62278912 14.47412017 175.42562494 9.92947633 179.16015625 5.2421875 C180.07087891 4.13230469 180.07087891 4.13230469 181 3 C181.36448242 2.46479736 181.72896484 1.92959473 182.10449219 1.37817383 C185.16017354 -0.84353164 188.53630972 -0.36581086 192.16796875 -0.29296875 C192.96278152 -0.28872391 193.7575943 -0.28447906 194.57649231 -0.28010559 C197.11384021 -0.2633193 199.65039238 -0.22566824 202.1875 -0.1875 C203.90819165 -0.17245305 205.62889576 -0.15876466 207.34960938 -0.14648438 C211.56671262 -0.11341607 215.78322142 -0.06163495 220 0 C216.59637436 4.65372944 213.13716469 9.10083434 209.1875 13.3125 C205.8674031 16.90968397 202.68760622 20.5564692 199.625 24.375 C195.75781137 29.1714071 191.65019284 33.6704146 187.44189453 38.16357422 C184.32460664 41.51081785 181.36433518 44.92995906 178.5 48.5 C175.15697842 52.66666457 171.64883069 56.60417858 168 60.5 C163.53353727 65.26955916 159.33824482 70.17904911 155.24609375 75.27734375 C151.34098981 80.01100888 147.16990172 84.49929188 143 89 C146.04984199 94.70056885 149.66791797 99.6346661 153.6875 104.6875 C154.95519531 106.29887509 156.22212372 107.9108538 157.48828125 109.5234375 C158.09752441 110.2978418 158.70676758 111.07224609 159.33447266 111.87011719 C162.10813588 115.41708845 164.79181257 119.02914619 167.48046875 122.640625 C170.16319373 126.23257684 172.89098871 129.78982504 175.61425781 133.35107422 C181.52315106 141.07883781 187.3811375 148.83617131 193.125 156.6875 C198.2045754 163.62869989 203.42460358 170.44184809 208.73291016 177.20922852 C214.79695925 184.96626459 220.61446055 192.89971672 226.41796875 200.85253906 C228.55116911 203.74816104 230.72982376 206.60858932 232.91601562 209.46435547 C234 211 234 211 234 212 C224.69031489 212.37253101 215.38323163 212.65586767 206.0676918 212.82899475 C201.74051066 212.91214317 197.4184631 213.02462564 193.09423828 213.20703125 C162.78749451 214.4521656 162.78749451 214.4521656 156.24023438 208.68359375 C153.45900582 205.40898036 151.56594091 201.87644622 149.8782959 197.94091797 C148.68938298 195.31357739 147.03996541 193.25844948 145.1875 191.0625 C144.39085937 190.04542969 144.39085937 190.04542969 143.578125 189.0078125 C143.05734375 188.34523438 142.5365625 187.68265625 142 187 C137.60398626 181.3785488 133.2635555 175.72255332 129 170 C121.19174941 159.52252167 113.19242503 149.18029286 105 139 C96.50707892 148.03573247 96.50707892 148.03573247 88.5 157.5 C84.68005989 162.26108478 80.61061181 166.71273025 76.44140625 171.1640625 C73.32431446 174.51116869 70.36418887 177.93014141 67.5 181.5 C63.68756403 186.25173179 59.62736999 190.69579986 55.46557617 195.13769531 C51.31921569 199.58914141 47.45160953 204.20628146 43.64453125 208.953125 C42 211 42 211 41 212 C38.3337397 212.08855161 35.69352886 212.11524673 33.02734375 212.09765625 C32.22970108 212.0962413 31.43205841 212.09482635 30.61024475 212.09336853 C28.05262565 212.08775316 25.49509282 212.07519812 22.9375 212.0625 C21.20768355 212.05748698 19.47786574 212.05292373 17.74804688 212.04882812 C13.49866447 212.03777875 9.24934688 212.02050386 5 212 C7.3428478 207.96034448 9.90882823 204.77442942 13.125 201.375 C16.71160492 197.54238887 20.15375998 193.66267264 23.4375 189.5625 C27.28110057 184.78378372 31.36960164 180.30842313 35.55834961 175.83618164 C38.67553945 172.48900673 41.63573798 169.06994977 44.5 165.5 C48.31994011 160.73891522 52.38938819 156.28726975 56.55859375 151.8359375 C59.67568554 148.48883131 62.63581113 145.06985859 65.5 141.5 C69.38236485 136.66121315 73.50527746 132.10711384 77.75195312 127.58984375 C80.96988768 124.15969009 84.01925905 120.63889725 87 117 C85.47046208 112.22244332 82.77927617 108.97692225 79.625 105.1875 C75.33818946 99.93735398 71.16411476 94.63061051 67.125 89.1875 C62.82243741 83.39995081 58.44210377 77.68115297 54 72 C49.10299011 65.73468827 44.28982998 59.41576109 39.5390625 53.0390625 C35.75638198 47.9754743 31.89199077 42.97991992 28 38 C22.02646006 30.35406572 16.1736765 22.62586466 10.37841797 14.84423828 C9.01072411 13.0143482 7.63406723 11.19159417 6.25390625 9.37109375 C5.82956299 8.81019043 5.40521973 8.24928711 4.96801758 7.67138672 C3.82888391 6.16669822 2.68794621 4.66337595 1.546875 3.16015625 C0 1 0 1 0 0 Z " fill="#FCFCFC" transform="translate(139,150)"/>
<path d="M0 0 C18.11024126 -1.77114246 18.11024126 -1.77114246 23.90625 1.78125 C25.77960935 4.11574395 27.35267856 6.47974372 28.8359375 9.07763672 C31.23792455 13.04434101 34.1559602 16.67006966 36.9375 20.375 C38.15953823 22.04021093 39.37962021 23.7068594 40.59765625 25.375 C44.07757417 30.12112805 47.64622476 34.78850565 51.25 39.44140625 C60.08292247 50.84725197 68.7910109 62.351805 77.42578125 73.90820312 C81.53852655 79.40472734 85.70545841 84.85899332 89.875 90.3125 C95.02824097 97.05450412 100.11428479 103.83895685 105.125 110.6875 C110.20737965 117.63246037 115.43017083 124.44939354 120.74169922 131.22021484 C125.61946782 137.45922119 130.32640138 143.81406095 135.00048828 150.20654297 C139.33512677 156.12753788 143.77957598 161.95013397 148.3046875 167.7265625 C150 170 150 170 150 171 C132.74413489 172.77908343 132.74413489 172.77908343 127.08984375 169.11328125 C125.20836778 166.76055709 123.59440907 164.38631448 122.08544922 161.78027344 C120.0095555 158.37554627 117.48732686 155.28529964 115.0625 152.125 C114.03303698 150.74767523 113.00567938 149.3687742 111.98046875 147.98828125 C109.30977331 144.4053058 106.60461685 140.85073206 103.875 137.3125 C103.46813965 136.7851123 103.0612793 136.25772461 102.64208984 135.71435547 C101.42850856 134.14255713 100.21425718 132.57127625 99 131 C91.86986905 121.74600026 84.76674549 112.47162225 77.67333984 103.18945312 C74.94966736 99.62571008 72.22478337 96.06289369 69.5 92.5 C68.41666062 91.08333796 67.33332729 89.66667128 66.25 88.25 C65.71375 87.54875 65.1775 86.8475 64.625 86.125 C54.33333333 72.66666667 44.04166667 59.20833333 33.75 45.75 C33.21358887 45.04858887 32.67717773 44.34717773 32.12451172 43.62451172 C31.0426126 42.20962051 29.96090646 40.79458172 28.87939453 39.37939453 C26.15069128 35.80932057 23.41854866 32.24197609 20.6796875 28.6796875 C15.28967204 21.66323071 9.93593164 14.62323941 4.6875 7.5 C4.21296387 6.85853027 3.73842773 6.21706055 3.24951172 5.55615234 C0 1.12056275 0 1.12056275 0 0 Z " fill="#030303" transform="translate(181,170)"/>
</svg>
