<?xml version="1.0" encoding="UTF-8"?>
<svg version="1.1" xmlns="http://www.w3.org/2000/svg" width="960" height="679">
<path d="M0 0 C15.09883329 -0.2808452 30.19754595 -0.49218383 45.29840755 -0.62174606 C52.31091268 -0.68351657 59.32179129 -0.76765539 66.33325195 -0.90527344 C73.10259392 -1.03807545 79.87024719 -1.10745032 86.64081001 -1.13852692 C89.22097908 -1.16066585 91.80105776 -1.20390185 94.38050652 -1.26876068 C115.67999051 -1.78292493 115.67999051 -1.78292493 120.49790955 2.5579834 C122.83412712 5.62766857 124.40954546 8.4986239 126 12 C127.26135855 13.85703928 128.55257983 15.69453784 129.88671875 17.5 C131.15581154 19.33183482 132.4226902 21.16520532 133.6875 23 C135.08437572 25.01710695 136.48151598 27.03403073 137.87890625 29.05078125 C138.57000488 30.04932129 139.26110352 31.04786133 139.97314453 32.07666016 C143.0099395 36.45663882 146.06608863 40.82295044 149.125 45.1875 C149.69436279 46.00025391 150.26372559 46.81300781 150.8503418 47.65039062 C151.99419264 49.28311796 153.13815369 50.91576808 154.28222656 52.54833984 C157.1896209 56.69786428 160.09468001 60.84902306 163 65 C164.16665575 66.66667431 165.33332241 68.33334098 166.5 70 C285.5 240 285.5 240 287.25048828 242.50073242 C288.41548364 244.16498828 289.5805226 245.82921361 290.74560547 247.4934082 C293.68820411 251.69670923 296.63000904 255.90056181 299.5703125 260.10546875 C305.03176431 267.91438668 310.49959932 275.7184538 316 283.5 C322.10075439 292.1308807 328.16098513 300.78989054 334.21777344 309.45166016 C337.14376733 313.6354306 340.0719831 317.81764524 343 322 C344.16667759 323.66665902 345.33334425 325.33332569 346.5 327 C347.36625 328.2375 347.36625 328.2375 348.25 329.5 C350 332 351.75 334.5 353.5 337 C354.07862793 337.82653076 354.65725586 338.65306152 355.25341797 339.50463867 C356.40899787 341.15562864 357.56427606 342.80682983 358.71923828 344.45825195 C361.80296989 348.86663603 364.89328716 353.27023148 367.9921875 357.66796875 C368.641875 358.59158203 369.2915625 359.51519531 369.9609375 360.46679688 C371.21685115 362.25198842 372.47460329 364.03588827 373.734375 365.81835938 C374.29382813 366.61435547 374.85328125 367.41035156 375.4296875 368.23046875 C375.92710449 368.93582764 376.42452148 369.64118652 376.93701172 370.36791992 C378 372 378 372 378 373 C362.84082465 373.44535041 347.68195114 373.77960592 332.5176897 373.98443127 C325.4748099 374.08210467 318.43601021 374.21502453 311.39575195 374.43334961 C304.59374057 374.64418446 297.79595526 374.75355824 290.99088097 374.80266762 C288.40244732 374.83763244 285.81423168 374.90592597 283.22760963 375.00887108 C263.48302425 375.76304016 263.48302425 375.76304016 257.64713478 371.13350105 C253.57817082 366.63704273 250.71784401 361.63835167 248.09310341 356.19872761 C246.71118066 353.41905307 245.00681503 350.96239174 243.16015625 348.47265625 C242.64243652 347.73442627 242.1247168 346.99619629 241.59130859 346.2355957 C241.08680176 345.51847412 240.58229492 344.80135254 240.0625 344.0625 C238.88928089 342.39065449 237.71610511 340.71877857 236.54296875 339.046875 C235.95950684 338.21607422 235.37604492 337.38527344 234.77490234 336.52929688 C232.39471814 333.13745253 230.02061167 329.74137368 227.64624023 326.34545898 C222.77963451 319.38597801 217.90182298 312.43472425 213 305.5 C206.89924561 296.8691193 200.83901487 288.21010946 194.78222656 279.54833984 C191.85623267 275.3645694 188.9280169 271.18235476 186 267 C184.83332241 265.33334098 183.66665575 263.66667431 182.5 262 C181.9225 261.175 181.345 260.35 180.75 259.5 C132.33333333 190.33333333 83.91666667 121.16666667 35.5 52 C34.9222583 51.17467773 34.3445166 50.34935547 33.74926758 49.49902344 C32.58495489 47.83567317 31.42072935 46.17226191 30.2565918 44.50878906 C27.30462804 40.29087191 24.35106366 36.07409128 21.39453125 31.859375 C15.78359551 23.85842718 10.18157265 15.85133076 4.625 7.8125 C4.15425049 7.13477539 3.68350098 6.45705078 3.19848633 5.75878906 C0 1.11639378 0 1.11639378 0 0 Z " fill="#000000" transform="translate(229,241)"/>
<path d="M0 0 C0.66 0 1.32 0 2 0 C1.28711177 38.93439076 0.57383332 77.86877435 -0.13989763 116.80314967 C-0.22616151 121.50890312 -0.31242248 126.21465662 -0.39868164 130.92041016 C-0.4158384 131.85637152 -0.43299516 132.79233288 -0.45067181 133.75665671 C-0.68757757 146.6810219 -0.92432986 159.60538989 -1.16094778 172.52976036 C-1.3084473 180.58624691 -1.45597456 188.64273296 -1.60351562 196.69921875 C-1.61977323 197.58697904 -1.63603084 198.47473932 -1.6527811 199.38940144 C-2.03190451 220.09083742 -2.41168296 240.79226113 -2.79324341 261.49365234 C-2.81799372 262.83653415 -2.81799372 262.83653415 -2.84324403 264.20654488 C-2.99339728 272.35303248 -3.14359111 280.49951934 -3.29391885 288.64600372 C-3.68842945 310.0255677 -4.08081379 331.40516812 -4.4691971 352.78484434 C-4.7581985 368.69286835 -5.04931461 384.6008525 -5.34244436 400.50880098 C-5.52061503 410.18239521 -5.69701221 419.85601821 -5.87095965 429.52968931 C-5.98887352 436.07775096 -6.10905958 442.6257685 -6.23098855 449.1737566 C-6.30077313 452.92503812 -6.36960911 456.67633004 -6.43567443 460.42767906 C-6.50763475 464.51244043 -6.58447005 468.59709693 -6.66166687 472.6817627 C-6.68112407 473.83023855 -6.70058127 474.9787144 -6.72062808 476.16199255 C-6.92880874 486.79646609 -7.49331257 497.35956387 -8 508 C-33.41 508 -58.82 508 -85 508 C-86.11392118 470.67327543 -86.11392118 470.67327543 -86.44744873 459.21450806 C-86.4703356 458.42821481 -86.49322247 457.64192156 -86.51680288 456.83180125 C-87.27441318 430.75460701 -87.94819523 404.67520686 -88.61629152 378.59559035 C-88.72893158 374.19884982 -88.84195595 369.80211921 -88.95502853 365.40538979 C-89.27171339 353.08848349 -89.58794281 340.7715657 -89.90232277 328.45460033 C-89.92202581 327.68269388 -89.94172884 326.91078742 -89.96202894 326.11548986 C-89.9916216 324.95610888 -89.9916216 324.95610888 -90.02181208 323.77330607 C-90.0617411 322.20897812 -90.10167093 320.64465018 -90.14160156 319.08032227 C-90.17130651 317.91657226 -90.17130651 317.91657226 -90.20161156 316.72931216 C-90.52515837 304.0574778 -90.8523036 291.38573897 -91.18090887 278.71403488 C-91.52297585 265.52117386 -91.86201216 252.32823767 -92.19810998 239.13522321 C-92.38505966 231.79945493 -92.57324087 224.46372329 -92.76475906 217.12807274 C-93.13502048 202.92082699 -93.49193503 188.71353157 -93.79180801 174.50458103 C-93.91484086 168.69189408 -94.05635965 162.88055076 -94.22828782 157.06911033 C-94.32749642 153.48694446 -94.3892929 149.90447398 -94.45458984 146.3215332 C-94.51940017 144.57600174 -94.51940017 144.57600174 -94.58551979 142.79520702 C-94.69811881 132.0940358 -89.81899551 125.52393745 -82.73535156 117.93701172 C-80.00597512 114.89046238 -77.8110124 111.5327961 -75.5625 108.125 C-74.66656378 106.80819052 -73.7680793 105.4931116 -72.8671875 104.1796875 C-72.40666992 103.50647461 -71.94615234 102.83326172 -71.47167969 102.13964844 C-68.73423329 98.15972471 -65.96013746 94.2054511 -63.1875 90.25 C-62.598479 89.40969238 -62.00945801 88.56938477 -61.40258789 87.70361328 C-60.20134297 85.99043991 -58.99992604 84.27738714 -57.79833984 82.56445312 C-54.86275016 78.37826875 -51.93156391 74.18900408 -49 70 C-47.83335519 68.33331803 -46.6666885 66.66665138 -45.5 65 C-44.9225 64.175 -44.345 63.35 -43.75 62.5 C-37.33333333 53.33333333 -30.91666667 44.16666667 -24.5 35 C-23.9215332 34.17338867 -23.34306641 33.34677734 -22.74707031 32.49511719 C-21.59104454 30.84411336 -20.43415642 29.19371297 -19.27636719 27.54394531 C-16.18921321 23.1424412 -13.12175237 18.72861278 -10.078125 14.296875 C-9.43746094 13.36875 -8.79679688 12.440625 -8.13671875 11.484375 C-6.89947308 9.69126533 -5.66750516 7.89450002 -4.44140625 6.09375 C-3.61189453 4.89492187 -3.61189453 4.89492187 -2.765625 3.671875 C-2.27868164 2.9612793 -1.79173828 2.25068359 -1.29003906 1.51855469 C-0.86432617 1.01743164 -0.43861328 0.51630859 0 0 Z " fill="#000000" transform="translate(729,106)"/>
<path d="M0 0 C0.86187644 0.00092179 1.72375288 0.00184359 2.61174679 0.00279331 C4.09049282 0.00073132 4.09049282 0.00073132 5.59911251 -0.00137234 C6.68955364 0.00222294 7.77999477 0.00581821 8.90347958 0.00952244 C10.04479336 0.00937641 11.18610714 0.00923038 12.36200619 0.00907993 C16.15506512 0.00977965 19.94807565 0.01757476 23.74112606 0.02539158 C26.36286549 0.02725555 28.98460527 0.02867955 31.60634518 0.0296793 C37.81473936 0.03279232 44.02311602 0.04100531 50.23150247 0.05102879 C57.29789422 0.06219084 64.3642868 0.06770061 71.43068516 0.07272422 C85.97037244 0.08318795 100.51004588 0.10078682 115.04971981 0.12304783 C114.27112648 1.54946077 113.48942906 2.9741796 112.70645809 4.39819431 C112.27149014 5.19176838 111.83652218 5.98534245 111.38837337 6.80296421 C109.47283641 10.12287166 107.24331364 13.14003433 104.92471981 16.18554783 C101.08683649 21.32416628 97.35070393 26.51161296 93.73721981 31.81054783 C89.60879975 37.8586795 85.4408518 43.87690398 81.23721981 49.87304783 C80.64835995 50.71311375 80.05950008 51.55317966 79.45279598 52.41870213 C78.25139398 54.13212361 77.04981431 55.84542054 75.84805965 57.5585947 C72.91246997 61.74477908 69.98128372 65.93404375 67.04971981 70.12304783 C65.883075 71.78972979 64.71640832 73.45639645 63.54971981 75.12304783 C62.97221981 75.94804783 62.39471981 76.77304783 61.79971981 77.62304783 C8.71638648 153.45638116 -44.36694686 229.2897145 -97.45028019 305.12304783 C-98.31773869 306.36248142 -98.31773869 306.36248142 -99.2027216 307.62695408 C-100.36072521 309.28096762 -101.51924755 310.93461812 -102.67830753 312.58789158 C-105.73203735 316.94520006 -108.77450697 321.30985171 -111.80184269 325.68554783 C-112.43348331 326.59562595 -113.06512394 327.50570408 -113.71590519 328.44336033 C-114.92497286 330.18584021 -116.13087967 331.93051907 -117.33309269 333.67773533 C-119.9685552 337.46932054 -122.49176855 341.01882275 -125.95028019 344.12304783 C-132.6522641 334.92367955 -139.30007417 325.69683735 -145.71981144 316.29785252 C-149.36454227 310.96390905 -153.05473895 305.66315937 -156.76278019 300.37304783 C-157.63761051 299.12455051 -157.63761051 299.12455051 -158.53011417 297.85083103 C-160.96616388 294.37566689 -163.40368572 290.90153941 -165.84237003 287.42822361 C-167.10359639 285.63179409 -168.36442389 283.83508447 -169.62484074 282.03808689 C-170.80115902 280.36100345 -171.97833911 278.68452398 -173.15657902 277.00879002 C-176.83391056 271.76501502 -180.42076283 266.46740485 -183.95028019 261.12304783 C-182.62257095 258.34426496 -181.14668678 255.81658674 -179.40340519 253.27929783 C-178.89559513 252.53816746 -178.38778507 251.79703709 -177.86458683 251.03344822 C-177.31536564 250.23801609 -176.76614445 249.44258396 -176.20028019 248.62304783 C-175.62463322 247.78572117 -175.04898624 246.94839451 -174.45589542 246.08569431 C-168.59083246 237.56989874 -162.65888549 229.10102044 -156.71639347 220.63916111 C-153.79006155 216.47012921 -150.8704992 212.29636263 -147.95028019 208.12304783 C-146.7836463 206.45635822 -145.61697962 204.78969156 -144.45028019 203.12304783 C-143.87278019 202.29804783 -143.29528019 201.47304783 -142.70028019 200.62304783 C-91.07528019 126.87304783 -91.07528019 126.87304783 -39.45028019 53.12304783 C-38.87261906 52.29780613 -38.29495792 51.47256443 -37.69979191 50.62231541 C-36.53479655 48.95805955 -35.36975759 47.29383422 -34.20467472 45.62963963 C-31.26207608 41.4263386 -28.32027115 37.22248602 -25.37996769 33.01757908 C-19.64386139 24.81562984 -13.90165221 16.61801649 -8.13778019 8.43554783 C-7.37280216 7.3475388 -7.37280216 7.3475388 -6.59237003 6.23754978 C-2.29464834 0.14477484 -2.29464834 0.14477484 0 0 Z " fill="#000000" transform="translate(615.9502801895142,63.876952171325684)"/>
<path d="M0 0 C0.66 0 1.32 0 2 0 C3.19824219 1.42675781 3.19824219 1.42675781 4.546875 3.453125 C5.30859009 4.58415649 5.30859009 4.58415649 6.08569336 5.73803711 C6.90952515 6.98145874 6.90952515 6.98145874 7.75 8.25 C8.93256008 10.00720649 10.11618799 11.76369475 11.30078125 13.51953125 C11.91260254 14.42912598 12.52442383 15.3387207 13.15478516 16.27587891 C16.03580387 20.52917433 18.98386648 24.73444452 21.9375 28.9375 C22.51790039 29.76475586 23.09830078 30.59201172 23.69628906 31.44433594 C24.87514966 33.12442385 26.05434883 34.80427425 27.23388672 36.48388672 C30.1602186 40.65291856 33.07980968 44.82666518 36 49 C39.63942397 54.20006093 43.2796834 59.39953334 46.921875 64.59765625 C47.56253906 65.51224609 48.20320312 66.42683594 48.86328125 67.36914062 C50.0947772 69.12714571 51.32653606 70.88496667 52.55859375 72.64257812 C53.38810547 73.8269043 53.38810547 73.8269043 54.234375 75.03515625 C54.72131836 75.7300415 55.20826172 76.42492676 55.70996094 77.14086914 C59.01198412 81.89955697 59.01198412 81.89955697 58.7644043 83.97460938 C57.97670013 86.06173609 57.07600202 87.60208836 55.76953125 89.40625 C55.30369629 90.05698486 54.83786133 90.70771973 54.35791016 91.37817383 C53.59293213 92.42847778 53.59293213 92.42847778 52.8125 93.5 C51.71169841 95.03476824 50.61146064 96.569941 49.51171875 98.10546875 C48.93470215 98.90774902 48.35768555 99.7100293 47.76318359 100.53662109 C44.8508328 104.60552438 41.98919952 108.7096298 39.125 112.8125 C37.94021625 114.50658881 36.75531954 116.20059862 35.5703125 117.89453125 C34.98024414 118.73838379 34.39017578 119.58223633 33.78222656 120.45166016 C30.85623266 124.63543062 27.92798979 128.81762624 25 133 C24.14704346 134.21864746 24.14704346 134.21864746 23.27685547 135.46191406 C20.21167374 139.84123947 17.14552013 144.21988083 14.078125 148.59765625 C13.43746094 149.51224609 12.79679688 150.42683594 12.13671875 151.36914062 C10.9052228 153.12714571 9.67346394 154.88496667 8.44140625 156.64257812 C7.88839844 157.43212891 7.33539063 158.22167969 6.765625 159.03515625 C6.27868164 159.7300415 5.79173828 160.42492676 5.29003906 161.14086914 C4.17490834 162.74793206 3.08502644 164.37246033 2 166 C-0.08894539 166.36914349 -0.08894539 166.36914349 -2.72024536 166.36076355 C-4.21367462 166.36694954 -4.21367462 166.36694954 -5.73727417 166.3732605 C-6.83347076 166.36247467 -7.92966736 166.35168884 -9.05908203 166.34057617 C-10.21029541 166.34101425 -11.36150879 166.34145233 -12.54760742 166.34190369 C-16.36784596 166.33980705 -20.18765026 166.3164342 -24.0078125 166.29296875 C-26.65054077 166.28737592 -29.29327215 166.28310435 -31.93600464 166.28010559 C-38.1904732 166.27077235 -44.44478489 166.24614145 -50.6991843 166.21605712 C-57.81878287 166.18255274 -64.93838883 166.16603711 -72.05804658 166.15097082 C-86.7054454 166.11959289 -101.3527205 166.06680767 -116 166 C-114.90017033 164.25846917 -113.79858992 162.51804391 -112.69628906 160.77807617 C-112.08303772 159.80875656 -111.46978638 158.83943695 -110.83795166 157.84074402 C-108.28242819 153.8909187 -105.53882312 150.09934163 -102.75 146.3125 C-98.60951149 140.63442166 -94.52538413 134.92855596 -90.5625 129.125 C-86.47496028 123.13996793 -82.34762719 117.1848472 -78.1875 111.25 C-77.598479 110.40969238 -77.00945801 109.56938477 -76.40258789 108.70361328 C-75.20134297 106.99043991 -73.99992604 105.27738714 -72.79833984 103.56445312 C-69.86275016 99.37826875 -66.93156391 95.18900408 -64 91 C-62.83335519 89.33331803 -61.6666885 87.66665138 -60.5 86 C-59.9225 85.175 -59.345 84.35 -58.75 83.5 C-52.33333333 74.33333333 -45.91666667 65.16666667 -39.5 56 C-38.92233887 55.1747583 -38.34467773 54.3495166 -37.74951172 53.49926758 C-36.58451636 51.83501172 -35.4194774 50.17078639 -34.25439453 48.5065918 C-31.31179589 44.30329077 -28.36999096 40.09943819 -25.4296875 35.89453125 C-19.73655397 27.75413723 -14.03686998 19.61846939 -8.3125 11.5 C-7.57265869 10.44969604 -7.57265869 10.44969604 -6.81787109 9.37817383 C-5.92776665 8.11732261 -5.03510733 6.85826866 -4.13916016 5.6015625 C-3.1795654 4.25245372 -2.23455205 2.89299061 -1.29296875 1.53125 C-0.86628906 1.0259375 -0.43960938 0.520625 0 0 Z " fill="#000000" transform="translate(345,448)"/>
</svg>
